<?xml version="1.0" encoding="UTF-8"?>
<svg id="katman_1" xmlns="http://www.w3.org/2000/svg" version="1.1" viewBox="0 0 148.7 111">
  <!-- Generator: Adobe Illustrator 30.6.0, SVG Export Plug-In . SVG Version: 2.1.4 Build 27)  -->
  <defs>
    <style>
      .st0 {
        fill: #bf7e2b;
      }

      .st1 {
        fill: #fff;
      }

      .st2 {
        fill: #063;
      }

      .st3 {
        opacity: .6;
      }

      .st3, .st4 {
        fill: #ffd255;
      }

      .st5 {
        fill: #df9433;
      }

      .st6 {
        fill: #f7a63e;
      }
    </style>
  </defs>
  <g>
    <path class="st5" d="M99,86.6c-.2.2-.4.5-.5.8-.1.2-.5.9-.5,1.2-.5-.4-1.3-.7-2.6-.4-.7.2-1.3.7-1.6,1.3-.2.5-.3,1,.1,1.5.2.2.5.4.8.4.6.1,1.6.2,2-.8,0,0,0,3.2-5.9,3.7h0c.8-.4,1.7-.9,2-1.7.4-.8.2-1.8-.3-2.4-.4-.5-1-.7-1.5-.6-.7.2-1.3.7-1.3,1.4,0,.5.4,1.2,1,1.1.2,0,.4-.2.6-.3,0,0,.2-.1.2-.2-.2,1.5-2.7,2.3-3.9,2.7-.4,0-.8-.1-1.2,0-1.4.1-2.7.6-4,1.1-.7.3-1.3.5-2,.9-4,1.8-11.6,9.5-11.6,9.5-3.2,3.5-7.6,3.6-8,3.6,1.5-.6,2.5-1.3,2.5-1.3.7-.5,2.3-.8,2.3-.8-.5-.7-1.2-.9-1.6-1,1.5.5,3.6-1.4,3.6-1.4,1-1.2,2.7-1.7,2.7-1.7.2-.8-2.2-.5-2.2-.5,3.3.2,8.2-7.7,8.2-7.7-.5,1.8-4.4,1.5-4.4,1.5-3-.5-5.4,1.3-5.4,1.3,1-.7,1.2-2.7,1.2-2.7-.2.7-1.3,1-1.3,1-2.2.2-4.2,2.2-4.2,2.2.3-.8,0-2.2,0-2.2-4.7,3.5-3.2,5.9-3.2,5.9-.5-1.5-2.7-1.7-2.7-1.7,3,8.7-6.2,9.6-6,9.7,3.3,1.7,7.6.4,10.3-.7.4.8,1.3,1.1,2.1,1.2,1.4.1,2.9-.3,4.2-.7.6-.2,1.2-.4,1.8-.7.4-.2.8-.3,1.2-.5.4-.2.9-.5,1.4-.6.7-.2,1.5-.1,2.2.2,0-.4-.2-.7-.5-1-.3-.2-.6-.3-.9-.5.6,0,1.1-.2,1.6-.5.4-.2.9-.5,1.3-.8.4-.2.7-.6,1.1-.8.7-.3,1.5-.4,2.2-.3.3,0,.6,0,.9.2,0,0,.3,0,.3,0-.7-2-3-1.8-3-1.8,1.7,0,3.7-1.8,3.7-1.8,1.7-1.3,4.4-.7,4.4-.7,0-.1,0-.3-.1-.4-.7-1.6-2.7-1.3-4.1-.8-.3.1-.6.3-1,.4.1-.3.5-.7.7-.9.3-.3.6-.5.9-.7,1.1-.6,2.4-1,3.6-1.1.6,0,1.3-.2,1.9-.1-.9-.1-1.8.9-1.6,1.8,0,.3.2.6.4.8.4.5.9.8,1.5.9.8,0,1.6-.3,2.2-.9.3-.3.6-.7.9-1.1.6-1,.4-2.1-.3-2.9,2.4,0,8.3-.3,9.1-4.4,0-.2,0-.4,0-.6h0c0,0-.3-3.1,1.1-3.1.1,0,.5.6.7.6.7.3,1.4-.9.9-1.4-.6-.7-1.8-.7-2.4,0Z"/>
    <path class="st5" d="M49,107.5c2,.3,4.1-1.9,4.1-1.9.8-1.2,2.8-.2,2.8-.2-.3-1.7-2.7-1.8-2.7-1.8,2.3-1.3,1.7-5.2,1.7-5.2-.3-1.3,1-2.5,1-2.5-2.3-.6-3.7.7-4.2,1.4,0,0,0,0,0,0,0,0,0,0,0,0,0,0,0,0,0-.1,0-.3-.2-.6-.3-.9,0,0,0-.2,0-.2-.1-.5-.2-1-.2-1.5,0-.5,0-1,.2-1.4,0-.2.2-.5.4-.7.5-.4.9.6,1.5.3.5-.2.6-.9.5-1.4-.2-.9-1.4-1.4-2.2-1.3-.8,0-1.5.6-1.9,1.3-.3.6-.3,1.3-.2,1.9-1.3-1.1-2.7-1.4-3.9-1.3-1.7.1-3.2,1.2-3.9,2.7-.7,1.4-.4,2.9.6,4.1,1.1,1.4,4.1,2.6,5.3.6,0,0,.3-.5.2-.5,1.5,1.8.4,4.7-1.3,5.8-1,.7-2.3,1.1-3.6,1.1-1.3,0-2.5-.5-3.4-1.4,0,1.2.4,2.6,1.4,3.4.3.2.7.3,1,.5,1.2,1.7,5.6.8,5.6.8,1.2-.3,3,.3,3,.3,0-1.1-.8-1.6-1.4-2Z"/>
    <circle class="st5" cx="16.9" cy="31.7" r="1.7"/>
    <path class="st5" d="M37.5,82.4s-1.5-5-5.1-5.6c-.9-4.5-3.4-10.8-9.6-13.7l.5-.8,1.5-2,.5-.7h0s1.9-2.6,1.9-2.6l-1.9.6h-.1s0,0,0,0c0,0,0,0,0,0l-.9.3-2.5.8s0,0,0,0c0,0,0,0,0,0h0s-.7.2-.7.2h0l-.8.3-1.4.4-.7.2h0c0,0-1.6-2.2-1.6-2.2l-1.3-1.7-.6-.8-1.7-2.3c1-.5,1.7-1.2,2.2-1.9,0,.3,0,.6,0,.9,0,.5.2,1,.3,1.5.2.7.6,1.4,1.2,1.9.5.4,1.1.7,1.8.8,1.5.2,4.4-.2,4.3-2.3,0-.8-.7-1.6-1.5-1.7-.3,0-.6,0-.8.3-.2.2-.4.7-.3,1,0,0,0,.1,0,.1-2.6,1.9-4.1-2.7-4.4-4,1.2-3.2-.4-6.7-.4-6.7-3.1-4.7-7.3-3.6-9.6-2.4,1.9-1.2,4.4-2.2,7.9-2.1,2.7,0,5.7,1.1,7.2,3.5.7,1.2,1.1,2.6,1.2,4,0,1.2,0,2.4-.6,3.4-.5,1.1-1.4,2-2.5,2.3,1.8-.1,3.7-.6,4.9-1.9.9-1,1.3-2.3,1.4-3.6,0-1.3-.1-2.6-.4-3.9,1.1-.3,2.4-.8,2.6-2,.2-.9-.4-1.8-.9-2.5.9-.3,1.8-1,2.1-1.9.4-.9.2-2-.4-2.8-.6-.7-1.8-1.1-2.7-.7.5-1.1,1-2.3.6-3.5-.6-2-3-2.5-4.7-1.8-.9.4-1.7,1.1-2.1,2.1-.4.9-.4,2.1.2,2.9.6.9,1.5,1.2,2.5,1.3-.5,1.5-3.7,1.7-4.9,1.7,0,0-9.6.1-14.2,6.5h0s0,0,0,0c-.9,1.3-1.6,2.8-2,4.6,0-.3.3-.7.5-1.2-.1.4-.2.7-.3.8,2.2-5.4,8.7-3.1,8.7-3.1,4,1.7,2.5,4.9,2.5,4.9-2.8-3.3-5.2.3-5.2.3-.6,1.6-.5,2.7,0,3.5-6,2.4-6.8,7.3-6.8,7.3-2,7.5,2.2,10.7,2.2,10.7,3.5,2.7,5.4,1.5,6.3.3.7-1,.8-2.3.2-3.3,0,0-.1,0-.2-.2l.6.2,1.5.5,1.1.4h.4v1s0,.8,0,.8v.7s0,.7,0,.7v2.3s0,0,0,0c0,0,0,0,0,0h0s0,1.4,0,1.4v.9s0,1.2,0,1.2v.6l.6-.9h0l1.7-2.4,1.4-2,1.8-2.4h.4c0,.1.2.2.2.2,0,0,.2.1.3.1-.2,0-.5,0-.7-.2.5.3,1.4.5,1.9.6,0,0,.2,0,.3,0l2.3.7,1.4.4c.2,1.2.4,5.1-1.9,7.2,0-.7-.6-1.2-1.3-1.2s-1.3.6-1.3,1.3.6,1.3,1.3,1.3.3,0,.5,0c-.7,1.3-2.2,3.2-4.5,3.3,0,0,2.5-1.7.1-4.7-.7-.9-1.9-1.4-3.1-1.1-1,.2-2.2.9-2.8,2.5-1.3,3.5,1.2,7.3,4.9,7.6,1.6.1,3.6-.3,6.1-1.6h0c.1,0,.2-.1.3-.2,0,0,1.4-1,2.7-2.8,0,.1,0,.3-.1.4,0,0-5.6,11.9,2.6,18-.1-.2-2.6-3.1-1.7-6.4,0,0,1,.8,1.3,1,0-.1-1.2-2.9-.3-4.7,0,0,.8.7,1,1.7,0,0,.7-1.3,1-3.3,0,0,.5-2,1-3.2,0,0,.5,1.5.3,2.5,0,0,2.8-4.2,1.3-8.2,0,0,1.2.7,1.5,1.2,0,0,0-1.8-.4-4.2.4.3.7.7.9,1.2.4,1,.5,2.1.5,3.1.2,3.8-1.1,7.7-4,10.3-.1.1-.2.2-.4.3,0,0,2.2.2,5.2-2.2-.2.2.1,1.3.2,1.5.6,1.2,1.9,1.7,3.1,1.9,0-.8.1-1.7.1-2.5,0-.8-.3-1.6-.6-2.3.8.8,1.9,1.2,3,1.3,1.8,0,3.4-1,4.7-2.2,0,0-5.5,1-7.9-5.7ZM5.1,65.8c0-.2-.1-.4-.2-.6l1.1.3c-.5.1-.9.2-.9.2ZM12.6,61.9l-.6.2-1.2.4-1.8.6-.9.3-.9.3-.8.3-1.7.6c-2.6-7.5,4.1-11.4,4.1-11.4h0c.2,0,.3.1.5.2-.2.1-.4.3-.5.4-.3.2-.5.4-.7.6-.4.4-.7.8-1,1.2-1,1.8-.5,5,1.7,5.5.3,0,.6,0,1,0,.7-.2,1.3-.9,1.6-1.5.4-.9-.2-2.3-1.2-2.5,0,0-1.3,0-1.3.1-.3-2,1-3.1,1.6-3.5.7.1,1.3,0,2-.2,0,0,.1,0,.2-.1v2.5s0,0,0,0v1.7s0,1.7,0,1.7v2.6s0,.2,0,.2ZM19.3,69.9s0,0,0,0h.1c0,0,0,0-.2,0ZM27.3,77s-.1.3-.3.6c.2-1.6-.1-3.5-1-5.6l1.2.4-1.1-1.4-1-1.3-1-1.3-.9-1.3-1.2-1.6h0l-.5-.7.6-.8c.2.1,7.8,4.1,5.2,13Z"/>
    <path class="st5" d="M69.3,4.6c.4,0,.7,0,1-.1,1.6-.4,3.3.3,3.3.3-2-2.1-4.1-2-5.1-1.8-.4,0-.7.4-.7.7-.1.7.8.9,1.4.9Z"/>
    <path class="st5" d="M58.5,5.9c.6,0,1.2,0,1.9.1,1.8.4,3.9.5,5.6-.4,1.1-.6,1.7-2,1.3-3.2-.3-.9-1.4-1.2-2.2-1.1-.7,0-1.4.5-1.7,1.2-.1.3-.2.6,0,.8.2.2.6.4.9.3-.4.1-.7.4-1.1.5-1.4.5-2.8.4-4.2.9-.8.3-1.6.8-2.2,1.5.1-.2.7-.3.9-.3.3,0,.6-.1,1-.2Z"/>
    <path class="st5" d="M47.6,5.1s6.4,1.5,8.3-1.6c.4-.7.5-1.6.2-2.3-.2-.5-.6-.9-1.4-1.1-.9-.2-1.8.2-2.4.9-.5.6-.8,1.4,0,2.5,0,0-2.5,0-3.8-.3,0,0-5.9-1.5-10.5,2.8,0,0,2.8-2.2,9.9-.8Z"/>
    <path class="st5" d="M55.8,6.2c-.3.8-1,1.2-1.6,1.5-.5.2-1,.3-1.5.3-1,0-1.4.5-1.4.5v-.3c.2-.3.1-.7,0-1-1-1.6-4.6,1.3-4.6,1.3.3-.6.1-1.3-.4-1.6-1.9-1.1-5.1,2.5-5.1,2.5-.1-.1-.3-.3-.5-.4-2.6-1.8-5.1.8-6.6,2.8-1.7,2.2-2.5,5.1-2.9,7.8-.6,4.1-.8,8.3-.9,12.4.8-.7,3.7-12.2,3.7-12.2,2.3-6.2,9.2-7.4,11.3-7.6.6,0,1.1-.1,1.7-.3,9.6-2.1,8.9-5.6,8.9-5.6Z"/>
    <path class="st5" d="M37.5,17.9c-1.8,2.4-2.5,5.4-3.8,8-.2.5-.5,1.4-1.1,1.7,1.1-.7,2-2,2.7-3,1.1-1.5,1.4-5.3,3.5-6,0,0,.1,0,.2,0,.8-.1,1.6.2,2.4-.2,1-.5,1.5-1.9.8-2.8-1.5-1.8-3.8,1.1-4.7,2.3Z"/>
    <path class="st5" d="M30.2,22.1c-1.3-11.2,6.2-15.7,6.2-15.7-5.2,0-6.4,4.4-6.4,4.4-.2-2.8-1.3-2.8-1.3-2.8-2.3,1.2-1.7,4.4-1.7,4.4-3.2-3-6.5,1.3-6.5,1.3,7-2.2,9.7,8.5,9.7,8.5Z"/>
    <path class="st5" d="M12.8,28c.2,3.3-3,4.9-3,4.9,6.7.2,6.9-8.9,6.9-8.9,1.7,4,4.2,2.8,4.2,2.8-.8-.5-1.3-1.2-1.4-1.9-.3-1.2.1-2.4,1-3.2.9-.8,1.9-1.1,2.8-1.1,1,0,2,.3,2.8.8,4,2.6,2.4,6,2.4,6,2.9-5.6.3-8.3-2.4-9.6-2.2-1.1-4.8-1.3-7.2-.6-6.3,1.7-7.5,7.5-7.5,7.5,1.3.3,2.5-1,2.5-1-1.2,1.3-1,4.2-1,4.2Z"/>
    <path class="st5" d="M6.7,32.8c3.9,1,4.8-6.6,4.8-6.6-.6.8-1.7,1.8-2.4,2.4-.4.4-.9.7-1.4,1-1.9,1.2-1.8,2.2-1.6,2.7.1.2.3.4.6.5Z"/>
    <path class="st5" d="M1.2,46.5c0,.2-.1.4-.1.4,0-.1.1-.2.1-.4Z"/>
    <path class="st5" d="M6.4,49.3c0-1.6-1.1-2.8-2.5-2.8s-2.5,1.3-2.5,2.8,1.1,2.8,2.5,2.8,2.5-1.3,2.5-2.8Z"/>
    <path class="st5" d="M6.2,37.4c.9,0,1.7-.7,1.7-1.7s-.7-1.7-1.7-1.7-1.7.7-1.7,1.7.7,1.7,1.7,1.7Z"/>
    <path class="st5" d="M101.8,84.7c-.3,0-.5.2-.5.5s.2.5.5.5.5-.2.5-.5-.2-.5-.5-.5Z"/>
    <path class="st5" d="M23.3,52.6c0,.6.4,1,1,1s1-.4,1-1-.4-1-1-1-1,.4-1,1Z"/>
    <path class="st5" d="M21.1,74c0-1.5-1.1-2.7-2.5-2.7s-2.5,1.2-2.5,2.7,1.1,2.7,2.5,2.7,2.5-1.2,2.5-2.7Z"/>
    <path class="st5" d="M12.4,87.5c-.7.2-1.1,1-.9,1.9.2.9,1,1.5,1.7,1.3.7-.2,1.1-1,.9-1.9-.2-.9-1-1.5-1.7-1.3Z"/>
    <path class="st5" d="M9.8,85.2c-.3.2-.4.7-.1,1.1.2.5.7.7,1,.6.3-.2.4-.7.1-1.1-.2-.5-.7-.7-1-.6Z"/>
    <path class="st5" d="M54.3,94.1c0,.4.3.7.7.7s.7-.3.7-.7-.3-.7-.7-.7-.7.3-.7.7Z"/>
    <circle class="st5" cx="57.1" cy="94.9" r=".7"/>
    <path class="st5" d="M18.6,94c-1.5.9-4.1.5-4.1-1.7,0-1.4,1-2.5,2.2-3.2,1.2-.6,2.6-.7,3.7-1.6.2-.1,1.7-1.4,1.6-1.7,1.1,2.7-1.1,6.7-3.4,8.1Z"/>
    <path class="st5" d="M21,92.1c-2.7,2.9-2.1,5.2-1.5,6.3.3.6,1.3.6,1.6,0,.4-.9-.3-2.3-.3-2.3-.5-1.5.2-4,.2-4Z"/>
    <path class="st5" d="M44.1,13.1c-.7,0-1.3.6-1.3,1.3s.6,1.3,1.3,1.3,1.3-.6,1.3-1.3-.6-1.3-1.3-1.3Z"/>
    <path class="st5" d="M46.2,12.8c-.5,0-.8.4-.8.8s.4.8.8.8.8-.4.8-.8-.4-.8-.8-.8Z"/>
    <polygon class="st5" points="39.5 103.3 40.5 103.3 40.5 103.3 41.3 103.2 42.4 103.2 45.1 103.1 43 101.7 42.1 101.1 41.5 100.7 40.7 100.2 39.4 99.3 40 97 40.3 95.9 40.7 94.8 40.9 93.8 41.2 92.7 40.4 93.4 39.7 94 38.7 94.7 37.8 95.4 35.9 96.9 34.4 96 33.6 95.5 32.6 94.8 32.2 94.5 30.2 93.2 31.1 95.6 31.3 96.2 31.8 97.4 32.1 98.4 32.6 99.6 31.4 100.5 30.5 101.2 29.6 101.9 28.8 102.5 27.2 103.8 29.1 103.7 30.1 103.7 31 103.6 32 103.6 32 103.6 34 103.5 34.7 105.4 35.1 106.4 35.4 107.1 35.8 108.2 36.4 109.9 37 108 37.3 106.7 37.5 105.9 37.9 104.7 38.3 103.3 39.4 103.3 39.5 103.3"/>
    <path class="st5" d="M58.8,3.9c.8,0,1.5-.6,1.5-1.3s-.7-1.3-1.5-1.3-1.5.6-1.5,1.3.7,1.3,1.5,1.3Z"/>
    <path class="st5" d="M10.2,77.6h0c.4-.5.6-1.2.6-1.9s0,0,0-.1c0-.8-.3-1.5-.8-2.1-.5-.6-1.1-1-1.8-1.1-.2,0-.4,0-.6,0-.3,0-.7,0-1,.2-.5.2-1,.5-1.4.9-.5.6-.8,1.4-.8,2.2s0,0,0,.1c0,.7.3,1.3.6,1.9.4.6,1.1,1.1,1.9,1.3.2,0,.5,0,.7,0s.5,0,.7,0c.8-.2,1.5-.7,1.9-1.3h0ZM8,77.3c0,0-.2,0-.3,0-.1,0-.3,0-.4,0h0s0,0,0,0c0,0,0,0,0,0-.3,0-.5-.3-.7-.5-.2-.3-.3-.6-.3-.9s0,0,0,0c0,0,0,0,0,0h0s0,0,0,0c0-.3.1-.6.3-.8,0,0,0,0,0,0h0s0,0,0,0c.2-.2.4-.4.7-.5,0,0,0,0,0,0,0,0,0,0,0,0h0c.1,0,.3,0,.4,0s.1,0,.2,0c.3,0,.6.2.8.4h0s0,0,0,0c0,0,0,0,0,0,.2.2.4.5.5.8,0,0,0,.2,0,.3,0,.3,0,.6-.3.8-.2.3-.6.5-.9.6Z"/>
  </g>
  <g>
    <path class="st3" d="M50.3,70.5c-1.7.1-4.2.4-5.6,1.3-.4.2-1,1.7-1.7,1.7-1.5,0-3.5-1-4.8-2.2-.8,3.5-2.5,10.4,6.1,13,6.2,1.9,20.3,2.2,25.9.9,10.8-2.6,12.5-4.3,15.6-6.9-5.6-5.6-25.9-8.6-35.5-7.8Z"/>
    <path class="st5" d="M50.3,69.2c-1.7.1-4.2.4-5.6,1.3-.4.2-1,1.7-1.7,1.7-1.5,0-3.5-1-4.8-2.2-.8,3.5-2.5,10.4,6.1,13,6.2,1.9,20.3,2.2,25.9.9,10.8-2.6,12.5-4.3,15.6-6.9-5.6-5.6-25.9-8.6-35.5-7.8Z"/>
    <g>
      <g>
        <path class="st2" d="M126.5,24.9c3.6,0,3.8,5.4.4,5.7s-4.3-5.6-.4-5.7ZM126.4,25.7c-2.6,0-2.7,4-.2,4.2s3.1-4.3.2-4.2Z"/>
        <path class="st2" d="M126.9,26.8c.5.1.6.9.1,1.2l.4.8c-.1,0-.4,0-.5,0s-.3-.6-.4-.7-.3,0-.3,0v.7h-.4v-2c.3,0,.8,0,1.1,0ZM126.9,27.2c-.1-.1-.5,0-.6,0v.5c.2,0,.6.1.7-.2s0-.2,0-.2Z"/>
      </g>
      <g>
        <path class="st2" d="M84.1,59.3h0s0,0,0,0c-1.1,1.7-2.8,2.5-4.3,2.5-2.6,0-5.1-2.3-5.1-7.4v-14.5c0-2.1,1.7-3.7,3.7-3.7h0c2.1,0,3.7,1.7,3.7,3.7v15.7c0,1.7.2,2.5,1.2,2.7s.8.5.8,1ZM79.1,30.4c-.7.2-.8.9-.8,1.1,0-.2,0-.9-.8-1.1-1.3-.4-1.9-1-1.9-1v1.8c0,.8,2.7,1,2.7,1.8h0c0-.8,2.7-1.1,2.7-1.8v-1.8s-.6.6-1.9,1ZM79.1,33.1c-.7.2-.8.9-.8,1.1,0-.2,0-.9-.8-1.1-1.3-.4-1.9-1-1.9-1v1.8c0,.8,2.7,1,2.7,1.8h0c0-.8,2.7-1.1,2.7-1.8v-1.8s-.6.6-1.9,1ZM77.5,29.6c.7.2.8.6.8.8h0c0-.2,0-.6.8-.8,0,0,.2,0,.2,0,0-.1,0-.2,0-.4,0-1.2-.8-2.7-1.1-2.7s-1.1,1.5-1.1,2.7,0,.3,0,.4c0,0,.1,0,.2,0Z"/>
        <path class="st2" d="M91.9,55.6c0,1.8.2,2.5,1.3,2.7s.7.4.7.8h0c0,.2,0,.3-.1.5-1.1,1.6-2.7,2.3-4.2,2.3-2.6,0-5.1-1.3-5.1-6.4v-25.3c0-2.1,1.7-3.9,3.9-3.9h0c2,0,3.6,1.6,3.6,3.6v25.8Z"/>
        <path class="st2" d="M112.6,55.6c0,1.8.2,2.5,1.3,2.7s.7.4.7.8h0c0,.2,0,.3-.1.5-1.1,1.6-2.7,2.3-4.2,2.3s-2-.2-2.8-.7c-1.3-.8-2.8-.9-4.1-.1s-1.9.8-3.2.8c-4.7,0-6.9-6.6-6.9-13.1s2.2-13,7-13,3.8,1,5,2.9h0s.6,1.1.6,1.1h0c-.3-1.8,1.1-3.5,2.9-3.5h0c2.1,0,3.9,1.7,3.9,3.9v15.5ZM105.1,53.5v-9.3c0-2.1-.7-2.7-1.6-2.7-1.7,0-2.4,3.4-2.4,7.5s.8,8.1,2.2,8.1,1.8-1.4,1.8-3.5Z"/>
        <path class="st2" d="M122.4,55.6c0,1.8.2,2.5,1.3,2.7.4,0,.7.4.7.8,0,.2,0,.3-.1.5-1.1,1.6-2.7,2.3-4.2,2.3-2.6,0-5.1-1.3-5.1-6.4v-25.8c0-1.9,1.5-3.4,3.4-3.4h.7c1.9,0,3.4,1.5,3.4,3.4v25.9Z"/>
        <path class="st2" d="M74,58.3c-1.1-.2-1.3-.9-1.3-2.7v-25.6c0-2.1-1.7-3.7-3.7-3.7h0c-2.1,0-3.7,1.7-3.7,3.7v25.5c0,5,2.5,6.4,5.1,6.4s3-.7,4.2-2.3c0-.1.1-.3.1-.5,0-.4-.3-.7-.7-.8Z"/>
        <g>
          <path class="st2" d="M50.3,32.5v17.2c2.5-1.1,6.3-1,7.5-2.6s0-14.5,0-14.5c0-5-2.5-6.4-5.1-6.4s-3,.7-4.2,2.3c0,.1-.1.3-.1.5,0,.4.3.7.7.8,1.1.2,1.3.9,1.3,2.7Z"/>
          <path class="st2" d="M50.3,52.8v5.3c0,2.1,1.7,3.7,3.7,3.7s3.7-1.7,3.7-3.7v-3.6c-2.3-1.7-5.3-2.2-7.5-1.7Z"/>
        </g>
      </g>
      <g>
        <g>
          <g>
            <path class="st6" d="M120.9,58.2c0-.7,1.5-2.1,2.6-3,6.4-4.9,13.5-11.6,15.7-19.7-2.9,9.4-11.9,16.9-19.8,22-.2.1-.3.2-.5.3,0,0,0,0,0,0h0c-3.3,2.2-3.4,6.3-6.3,8.5,1.8-.6,3.8-1.3,4.9-2.2,1.9-1.4,3.2-3.6,3.4-6Z"/>
            <path class="st4" d="M120.1,58.4s-1.5,4.3-3.3,5.5c1.4-1.6,3.3-5.5,3.3-5.5Z"/>
            <path class="st5" d="M115.1,65.4c-.8.3-1.7.6-2.5.9,2.9-2.2,3-6.3,6.3-8.5h0s0,0,0,0c.1,0,.3-.2.4-.3-1.8,1.5-3.3,3.7-3.7,6.1,1.1-1.2,2.5-3.5,2.5-3.5,0,0-.6,3.1-3.1,5.2Z"/>
          </g>
          <g>
            <path class="st6" d="M114.9,60.8c0-.7,1.4-2,2.5-2.8,6-4.4,13.3-10.5,15.4-18-2.8,8.8-12,15.6-19.6,20.2-.2.1-.3.2-.5.3,0,0,0,0,0,0,0,0,0,0,0,0-3.3,2.1-3.2,6.1-6,8.3,1.8-.5,3.9-1.3,4.9-2.1,1.9-1.4,3.1-3.5,3.2-5.8Z"/>
            <path class="st5" d="M109.8,65.9c1.1-1.1,2-3,2-3,0,0-.6,3.2-3.1,5.1-.6.2-1.3.4-1.9.6,2.9-2.1,2.7-6.1,6-8.3,0,0,0,0,0,0,0,0,0,0,0,0,.2-.1.3-.2.5-.3,0,0,.2,0,.3-.2-1.9,1.4-3.3,3.6-3.7,6Z"/>
            <path class="st4" d="M114.1,61s-1.4,4.3-3.1,5.4c1.3-1.5,3.1-5.4,3.1-5.4Z"/>
          </g>
          <g>
            <path class="st6" d="M108.4,63.2c0-.7,1.3-1.8,2.3-2.4,5.3-3.1,12.2-7.4,14.7-13.4-3.2,7-11.8,11.6-18.4,14.8-.1,0-.3.1-.4.2,0,0,0,0,0,0h0c-3.3,1.6-2.9,5.6-5.5,7.6,1.6-.3,3.4-.8,4.3-1.4,1.8-1.3,2.8-3.3,3-5.4Z"/>
            <path class="st5" d="M106.6,62.4h0s0,0,0,0c.1,0,.3-.1.4-.2-1.8,1.1-2.9,3.4-3.3,5.4,1.3-1,2.1-2.4,2.1-2.4,0,0-.7,2.8-3.3,4.5-.2,0-1.2.3-1.4.3,2.6-2,2.2-6,5.5-7.6Z"/>
            <path class="st4" d="M107.7,63.3s.5,2.9-2.9,5c1.2-1.4,2.4-3.5,2.9-5Z"/>
          </g>
          <g>
            <path class="st6" d="M103.2,64.5c0-.8,1.4-1.8,2.4-2.3,5.4-2.6,12.7-6.3,15.5-12-3.6,6.7-12.5,10.5-19.2,13.1-.2,0-.3.1-.4.2,0,0,0,0,0,0h0c-3.5,1.6-3.3,5.4-6,7.5,1.6-.2,3.4-.5,4.4-1.1,2-1.2,3.1-3.2,3.3-5.4Z"/>
            <path class="st5" d="M101.4,63.5h0s0,0,0,0c0,0,.2,0,.3-.1-1.8,1.2-2.7,3-2.9,5,1.4-1.2,2.6-3.3,2.6-3.3-.8,2.4-2.5,4.6-4.8,5.8-.4,0-.8.1-1.2.1,2.7-2.1,2.6-5.9,6-7.5Z"/>
            <path class="st4" d="M102.5,64.5s-1.4,4.1-3.2,5c1.3-1.4,3.2-5,3.2-5Z"/>
          </g>
          <g>
            <path class="st6" d="M93.9,70.5c2.4-1.4,3-3.4,3.3-4.8.2-.7,1.4-1.6,2.4-2.1,0,0-2.2.8-3.2,1.1-3.3,1.1-3.9,5-6.6,6.8,1.5-.2,3.2-.5,4.1-1.1Z"/>
            <path class="st5" d="M95.5,65.2c-.8.7-2.1,2.2-2.5,4,1.1-.9,2-2.2,2-2.2,0,0-1,2.9-3.8,4.3-.5,0-.9.2-1.4.2,2.4-1.7,3.2-4.7,5.7-6.4Z"/>
            <path class="st4" d="M96.6,65.8s0,2.6-3.2,4.4c1.3-1.2,2.6-3.1,3.2-4.4Z"/>
          </g>
          <g>
            <path class="st6" d="M89,70.9c2-1.1,2.7-2.8,3-4,.2-.6,1.2-1.3,2.1-1.6,0,0-1.9.4-2.7.7-2.7.9-3.5,4-5.8,5.7,1.2-.1,2.6-.3,3.4-.7Z"/>
            <path class="st5" d="M90.6,66.3c-.7.6-1.9,1.8-2.3,3.4.9-.7,1.7-1.8,1.7-1.8,0,0-1,2.5-3.3,3.6-.4,0-.8,0-1.1.1,2-1.5,2.8-4,5-5.4Z"/>
            <path class="st4" d="M91.5,66.9s-.1,2.3-2.9,3.7c1.1-1,2.3-2.6,2.9-3.7Z"/>
          </g>
        </g>
        <g>
          <g>
            <path class="st6" d="M122.8,65.6c.7.3,2.8-.6,4.2-1.5,8.4-5.4,14.3-13.2,21.1-20.4-8,8.7-14.9,17.7-25.5,23.5-.2.1-.4.2-.6.3,0,0,0,0,0,0,0,0,0,0,0,0-4.2,2.1-7.2-.4-11.3,0,1.7-.8,3.6-1.8,5-2.1,2.4-.6,4.9-.6,7.2.2Z"/>
            <path class="st4" d="M122.1,66.3s-4.7-.7-6.8-.1c2.3,0,6.8.1,6.8.1Z"/>
            <path class="st5" d="M113,66.4c-.8.4-1.6.8-2.4,1.1,4.1-.3,7.1,2.2,11.3,0,0,0,0,0,0,0,0,0,0,0,0,0,.2,0,.3-.2.5-.3-2.4,1-5.4,1.1-7.7-.2,1.7,0,4.6,0,4.6,0-2-.6-4.2-.9-6.3-.7Z"/>
          </g>
          <g>
            <path class="st6" d="M116.6,69.6c.6.4,2.8,0,4.3-.6,9.3-3.8,16.4-10.5,24.5-16.2-9.6,7.1-17.9,14.7-29.5,18.6-.2,0-.4.1-.7.2,0,0,0,0,0,0,0,0,0,0,0,0-4.7,1.4-6.6-1.9-10.7-2.3,1.8-.5,3.9-1.2,5.2-1.3,2.4-.2,4.8.3,6.8,1.6Z"/>
            <path class="st5" d="M108.8,69.7c1.7.2,3.8.9,3.8.9-1.8-1-3.9-1.8-6-1.9-.7.2-1.3.4-2,.5,4.1.4,6.1,3.6,10.7,2.3,0,0,0,0,0,0,0,0,0,0,0,0,.2,0,.4-.1.7-.2,0,0,.2,0,.4-.1-2.6.6-5.5.3-7.5-1.5Z"/>
            <path class="st4" d="M115.9,70.1s-4.3-1.7-6.5-1.5c2.2.4,6.5,1.5,6.5,1.5Z"/>
          </g>
          <g>
            <path class="st6" d="M109.3,72.7c.5.5,2.5.5,3.8.2,8.2-2.1,15.2-6.7,23-9.7-9.3,3.8-17.4,9.2-27.5,11.2-.2,0-.4,0-.6,0,0,0,0,0,0,0h0c-4.3.6-5.7-2.8-9.2-3.9,1.6-.3,3.4-.7,4.6-.6,2.2.2,4.3,1.2,5.9,2.8Z"/>
            <path class="st5" d="M108.1,74.4h0s0,0,0,0c.2,0,.4,0,.6,0-2.4.4-4.8-1.1-6.3-2.7,1.7.3,3.3,1,3.3,1,0,0-2.2-1.9-5.3-2.4-.2,0-1.2.2-1.4.3,3.5,1.2,4.9,4.6,9.2,3.9Z"/>
            <path class="st4" d="M108.7,73.1s-3.5-2.6-5.6-2.6c1.8.7,5.6,2.6,5.6,2.6Z"/>
          </g>
          <g>
            <path class="st6" d="M103.4,74.6c.5.6,2.4.8,3.8.6,8.3-1.3,15.8-5.3,23.9-7.3-9.7,2.7-18.3,7.4-28.5,8.4-.2,0-.4,0-.6,0,0,0,0,0,0,0,0,0,0,0,0,0-4.6.2-5.3-3.7-8.9-5.1,1.6-.1,3.4-.4,4.6-.2,2.3.4,4.2,1.8,5.7,3.6Z"/>
            <path class="st5" d="M102,76.4s0,0,0,0c0,0,0,0,0,0,.1,0,.2,0,.3,0-2,0-4.3-1.6-5.2-3.4,1.8.7,4,2.1,4,2.1-1.9-1.8-4.3-3.3-6.9-3.9-.4,0-.8,0-1.2.1,3.6,1.4,4.3,5.3,8.9,5.1Z"/>
            <path class="st4" d="M102.7,75s-3.3-3.1-5.4-3.3c1.8,1,5.4,3.3,5.4,3.3Z"/>
          </g>
          <g>
            <path class="st6" d="M91.8,72c1.8.8,3.6,2,4.7,3.9.4.6,2.1,1,3.4,1.1,0,0-2.8.1-4.1,0-4.1-.2-5.2-3.9-8.3-5.7,1.5.2,3.3.2,4.2.7Z"/>
            <path class="st5" d="M94.6,76.9c-1.1-.5-2.9-1.7-3.6-3.5,1.3.7,2.5,1.8,2.5,1.8,0,0-1.8-2.5-4.7-3.7-.5,0-.9,0-1.4-.1,2.6,1.7,3.9,4.6,7.1,5.5Z"/>
            <path class="st4" d="M95.7,76s-.8-2.4-4.5-3.6c1.5,1,3.4,2.5,4.5,3.6Z"/>
          </g>
          <g>
            <path class="st6" d="M86.8,72c2.1,1.1,3,2.6,3.5,3.8.3.6,1.6,1.1,2.7,1.3,0,0-2.3-.1-3.3-.3-3.3-.6-4-3.8-6.3-5.6,1.2.2,2.6.4,3.4.8Z"/>
            <path class="st5" d="M88.8,76.6c-.8-.5-2.2-1.7-2.7-3.3,1,.7,1.9,1.8,1.9,1.8,0,0-1.3-2.4-3.5-3.6-.4,0-.7-.1-1.1-.2,2,1.7,2.8,4.3,5.4,5.4Z"/>
            <path class="st4" d="M89.7,75.9s-.5-2.2-3.4-3.5c1.1,1,2.6,2.5,3.4,3.5Z"/>
          </g>
        </g>
        <g>
          <path class="st6" d="M126.6,57.2c2.6-1.1,5.2-2.8,7.3-4.9-2.1,2.2-4,4.5-5.9,6.8-1.9,2.4-4.7,4.9-7.9,5-2.2,0-5.2,1.4-5.2,1.4,2.1-1,4.4-2.3,5.6-4.1,1.4-2,3.8-3.2,6-4.2Z"/>
          <path class="st5" d="M120.6,61.4c.7-1,1.2-1.5,1.9-2,0,.2-1,2.4-3,3.8,1.4-.7,4.6-2.6,4.6-2.6-1.7,1.3-2.6,1.9-4.4,3,0,0,1,.4,2.4.1-.7.2-1.4.4-2.1.4-2.2.1-5.2,1.4-5.2,1.4,2.1-1,4.3-2.3,5.6-4.1Z"/>
          <path class="st6" d="M127.5,57.5c9.7-7.1,16.9-17.3,21.2-28.5-4.2,11.4-11.3,21.4-20.7,29.1-1.6,1.4-1.9.9-1.9.9,0,0-.3-.4,1.4-1.6Z"/>
          <path class="st4" d="M127.4,59.2c-1.4,2.4-4,4-6.6,4.5,2.4-1.2,4.7-2.7,6.6-4.5Z"/>
          <path class="st4" d="M122.8,59.5c2.1-1.6,4.8-2.3,7.1-3.7-2.2,1.8-4.7,2.3-7.1,3.7Z"/>
          <path class="st0" d="M124.2,60.6c-16.9,8.9-31.3,12.3-47.1,9.9v.5c15.9,2.3,32-1,46.2-9.7-.1-.2,1-.6.9-.7Z"/>
        </g>
      </g>
      <path class="st5" d="M83.2,70c-2,.4-3.7.5-5,.3,0,0,0,0,0,0,0,0,0,0,0,0-.3,0-.7,0-1,0-3.1-.1-5.5-.8-8-1.8-5-2,5.4-10.8-20.6-1.3s-10.7-7.7.4-15.1c5.2-3.5,14.7,9.1,15.1-3.9,0-1-.9-3.5-.9-3.5,1.3,7.8-5.2.2-16.4,8.7-17.7,13.4-4.6,18.7-3.5,16.9,3-4.8,18.7-2.4,25.1-.9,2.1.5,4.1,1.1,6.3,1.6.7.1,1.4.3,2.1.6-.4-.2-.7-.3-.7-.3,0,0,6.4,1.7,9.4,4.2-2.5-3.3-4.2-4.1-4.2-4.1h0c1.7.1,3.4-.4,4.5-1.3.6-.6,1.3-1.3,2-2.4,0,0-2.7,2.1-4.7,2.6Z"/>
    </g>
    <path class="st2" d="M43.4,77.9"/>
    <path class="st6" d="M41.2,70.5"/>
    <g>
      <path class="st1" d="M52.1,69.1c0,0,0,.1,0,.2,0,0-.1,0-.1,0,0,0,0,0,0,0s0,0,0,.1c0,0,0,0,0,0,0,0,0,0,0,0h0c0,0,0,.1,0,.1,0,0,0,0,0,0,0,0,0,0,0,0s0,0,0,0c0,0,0,0,0,0,0,0,0,0,0,0,0,0,0,.1,0,.2,0,0,0,.1,0,.2,0,0,0,0,0,0,0,0,0,0,0,0,0,0,0,.1-.1.2,0,.1,0,.2-.1.3,0,0,0,.1,0,.2,0,0,0,0,0,.2,0,0,0,0,0,0s0,0,0,0c0,0,0,0,0,.1s0,0,0,.1c0,0,0,0,0,0,0,0,0,0,0,0,0,0,0,0,0,0s0,0,0,0c0,0,0,0,0,0,0,0,0,0,0,0h0c0,.1,0,.2,0,.2s0,0,0,0h0s0,0,0,0c0,0,0,.1,0,.2,0,0,0,.2,0,.2,0,0,0,0,0,.1,0,0,0,0,0,.2,0,0,0,.1-.1.2,0,0,0,0,0,.1,0,0,0,0,0,.1,0,0,0,0,0,0,0,0,0,0,0,0,0,0,0,0,0,.1v.2c-.1,0-.1,0-.2.2,0,.1,0,.2-.1.3,0,0,0,0,0,0,0,0,0,0,0,0,0,0,0,0,0,0,0,0,0,0,0,0,0,0,0,.1,0,.2s0,.1,0,.2c0,.1,0,.2-.1.3,0,0-.1.2-.2.3,0,0,0,.2-.1.3,0,0,0,.2-.1.3,0,0,0,0,0,0,0,0,0,0,0,0,0,0,0,0,0,.1,0,0,0,0,0,.1,0,0,0,0,0,0,0,0,0,0,0,0,0,0,0,.1,0,.2s0,.1,0,.2c0,.1,0,.3-.1.4,0,.1,0,.3-.1.4,0,0,0,0,0,0,0,0,0,0,0,0,0,0,0,.1,0,.1,0,0,0,0,0,.1,0,0,0,.2,0,.3,0,0,0,.2,0,.3,0,0,0,0,0,0,0,0,0,0,0,0,0,0,0,0,0,.2,0,.1,0,.2,0,.3,0,0,0,.2-.1.3s0,.2,0,.3c0,0,.1,0,.2,0,0,0,.2,0,.4,0,.2,0,.3,0,.5,0,.2,0,.3,0,.5,0,0,0,0,0,0,0,0,0,0,0,0,0,0,0,0,0,0,0,0,0,0,0,0,0,0,0,0,0,0,0,0,0,0,0,.1,0,0,0,0,0,0,0,0,0,0,0,0,0s0,0,.1,0c0,0,.1,0,.2,0,.5,0,1.1,0,1.7.1,0,0,0,0,0,0,0,0,0,0,0,0,0,0,0,0,0,0s0,0,0,0c0,0,0,0,0,0,0,0,0,0,0,0s0,0,0,0h0s0,0,.2,0c.1,0,.2,0,.2,0h0c0,0,0,0,0,0,0,0,0,0,0,0h0s0,0,0,0c0,0,0,0,0,0,0,0,0,0,0,0,0,0,0,.1.1.1,0,0,.1,0,.2,0,0,0,.1,0,.1,0s0,0,.1,0c0,0,0,0,0,0,0,0,0,0,0,0,0,0,0,0,0,0,0,0,0,0,0,0,0,0,.2.1.4.2,0,0,0,0,.1,0,0,0,0,0,.1.1,0,0,0,.1,0,.1,0,0,0,0,0,0s0,0-.1,0c0,0,0,0,0,0,0,0-.2,0-.2,0,0,0-.2,0-.2,0-.1,0-.2,0-.3,0-.1,0-.2,0-.3,0-.4,0-.9,0-1.3,0-.4,0-.8,0-1.3,0-.3,0-.6,0-1,0-.3,0-.6,0-.9,0-.3,0-.6,0-.9,0-.3,0-.6,0-.8,0,0,0-.1,0-.2,0s-.1,0-.2,0c0,0,0,0,0,0,0,0,0,0,0,0,0,0-.2,0-.2,0,0,0-.1,0-.3,0,0,0,0,0-.1,0,0,0-.1,0-.1,0,0,0,0,0,0-.1,0,0-.1,0-.2-.1,0,0-.2,0-.2,0,0,0-.1,0-.2,0,0,0,0,0,0,0,0,0,0,0-.1,0,0,0,0,0-.1-.1,0,0,0,0,0-.2-.1,0-.2,0-.2-.2,0,0,0-.2,0-.2,0,0,.1,0,.2-.1,0,0,0,0,0,0,0,0,0,0,0,0,0,0,0,0,0,0,0,0,0,0,0,0,0,0,0,0,0,0,0,0,0,0,0,0,.1,0,.3,0,.4,0,.2,0,.3,0,.4,0,0-.2,0-.3,0-.5,0-.2,0-.3,0-.5,0,0,0-.2,0-.2,0,0,0-.2,0-.3,0-.2,0-.3,0-.5,0-.2,0-.3.1-.5,0-.1,0-.2,0-.3,0,0,0-.2,0-.3,0-.1,0-.3.2-.5,0-.2.1-.4.2-.6,0,0,0-.1,0-.1,0,0,0,0,0-.2,0,0,0,0,0-.1,0,0,0-.1,0-.2,0,0,0,0,0,0,0,0,0,0,0,0,0,0,0,0,0-.1,0,0,0-.2,0-.3,0-.1,0-.2.1-.3,0-.2.1-.3.2-.5,0-.2,0-.3.2-.5,0,0,0,0,0,0,0,0,0,0,0,0,0,0,.1,0,.2-.2,0-.1,0-.2.1-.3,0,0,0,0,0,0,0,0,0,0,0,0,0,0,0,0,0,0,0,0,0,0,0,0,0,0,0,0,0,0,0,0,0,0,0,0h0c0-.1,0-.2,0-.2,0,0,0,0,0,0s0,0,0,0c0,0,0,0,0-.1,0,0,0,0,0-.1,0,0,0,0,0,0,0,0,0,0,0,0,0,0,0,0,0-.1,0,0,0,0,0,0,0,0,0,0,0,0s0,0,0,0c0,0,0,0,0,0,0,0,0,0,0,0,0,0,0,0,.1-.2,0,0,0-.2.1-.2,0,0,0,0,0,0,0,0,0,0,0,0,0,0,0,0,0,0,0,0,0,0,0,0,0,0,0,0,0,0,0,0,0,0,0,0,0,0,0,0,0,0,0,0,0,0,0,0,.1-.2.3-.4.4-.6.1-.2.3-.4.4-.5,0,0,.1,0,.2-.2,0,0,0-.1.1-.2,0,0,0-.1.2-.2,0,0,0,0,.1,0,0,0,0,0,.1-.1,0,0,0,0,0-.1,0,0,.1,0,.2-.1,0,0,.2-.1.4,0,.2,0,.3,0,.5.1,0,0,0,0,0,0s0,0,0,0c0,0,.1,0,.1,0,0,0,0,0,.1,0,0,0,0,0,.1,0,0,0,0,0,.1,0,0,0,0,0,0,0,0,0,0,0,.2,0,0,0,.1,0,.2.1.1,0,.2.1.3.2ZM45.8,79.9h0c0-.1,0-.2,0-.2,0,0,0,0,0,0,0,0,0,0,0,0,0,.1,0,.2,0,.2,0,0,0,0,0,0ZM45.9,79.2h0c0-.1,0-.1,0-.2,0,0,0,0,0,0,0,0,0,0,0,0,0,.1,0,.2,0,.3,0,0,0,0,0,0ZM46,78.8s0,0,0,0c0,0,0,0,0-.1,0,0,0,0,0,0,0,0,0,0,0,0,0,.1,0,.2,0,.2,0,0,0,0,0,0ZM47.9,72.8c0,.2-.1.4-.2.6-.1.2-.2.4-.3.5,0,0,0,0,0,0,0,0,0,0,0,0,0,0,0,.2,0,.3,0,.1,0,.2,0,.3,0,0,0,.2-.1.3,0,.1,0,.2-.1.3,0,0,0,.1,0,.2,0,0,0,.1,0,.2,0,.2-.1.4-.2.6,0,.2-.1.3-.2.5,0,.2,0,.4-.1.5,0,.2,0,.3-.1.5,0,0,0,0,0,0,0,0,0,0,0,0,0,0,0,.1,0,.2,0,0,0,.1,0,.2v.2c0,0,0,0,0,0,0,0,0,0,0-.1.1-.5.2-.9.4-1.4.1-.5.3-.9.4-1.3h0s0,0,0,0c0,0,0-.1,0-.2s0-.1,0-.1c0-.2,0-.3,0-.5,0-.1,0-.3.1-.4,0-.1.1-.2.2-.4,0-.1,0-.3.1-.4,0,0,.2-.2.2-.3,0-.1.1-.2.2-.3,0,0,0,0,0,0,0,0,0,0,0,0,0,0,0-.2,0-.2,0,0,0-.1.1-.2,0,0,0,0,0,0,0,0,0,0,0,.1,0,0,0,0,0,.2,0,0,0,0,0,0ZM50,72s0,0,0,0c0,0,0,0,0,0s0,0,0,0c0,0,0,0,0,0,0,0,0,0,0,0,0,0,0,0,0,0,0,0,0,0,0,0s0,0,0,0c0,0,0,0,0,0,0,0,0,0,0,0,0,0,.2,0,.2-.2,0,0,0-.2.1-.2,0,0,0,0,0,0,0,0,0,0,0,0,0,0-.1,0,0,0,0,0,0,0,0-.2,0,0-.2,0-.2,0,0,0,0,.1,0,.2s0,0,0,0,0,0,0,0c0,0,0,0,0,0,0,0,0,0,0,0,0,0,0,0,0,.1,0,0,0,0,0,.1,0,0,0,0,0,0,0,0,0,0,0,0,0,0,0,0,0,0,0,0,0,0,0,0,0,0,0,0,0,.1,0,0,0,0,0,0,0,0-.1,0,0,0,0,0,0,0,0,0,0,0,0,0,0,0,0,0,0,0,0,0,0,0,0,0,0,.2s0,0,0,.1c0,0,0,0,0,0s0,0,0,0c0,0,0,0,0,0,0,0,0,0,0,0,0,0,0,0,0,0,0,0,0,0,0,.1,0,0,0,0,0,0,0,0,0,0,0,0,0,0,0,0,0,0,0,0,0,0,0,0,0,0,0,0,0,0,0,0,0,0,0,0,0,0,0,0,0,0,0,0,0,0,0,0,0,.1,0,.2,0,.3-.1,0-.2,0-.2,0,0,0,0,.1,0,.2,0,0,0,0,0,0,0,0,0,0,0,0,0,0,0,.2-.1.3,0,0,0,.2,0,.3,0,0-.1,0-.1,0s0,0,0,0c0,0,0,0,0,0s0,0-.1,0c0,.1,0,.2,0,.2,0,0,0,0,0,.2,0,0,0,0-.1,0,0,0,0,0-.1,0,0,0,0,.1,0,.2,0,0,0,.2,0,.2h0s0,0,0,0c0,0,0,.1,0,.1,0,0,0,0,0,0,0,0,0,0,0,0h0c0,.1,0,.2,0,.2s0,0,0,.2h-.1c0,0,0,0,0,.1,0,0,0,0,0,.1,0,0-.1,0-.1,0,0,0,0,.1,0,.2,0,0,0,0,0,0,0,0,0,0,0,0,0,0,0,0,0,0,0,0,0,0,0,0h0s0,0,0,0c0,0,0,0,0,0,0,0,0,0,0,0,0,0,0,.1,0,.1,0,0,0,0,0,.1,0,0-.1,0-.1,0,0,0,0,0,0,0s0,0,0,.1,0,0-.2,0c0-.2.1-.4.2-.6,0-.2.1-.4.2-.6,0,0,0,0-.1,0,0,0,0,0,0,0,0,0,0,0,0,0s0,0,0,0c0,0,.1,0,.1,0,0,0,0,0,0,0,0,0,0,0,0,0,0,0,0,0,.1,0,0-.1,0-.2,0-.2,0,0,0-.1,0-.2,0,0,0-.1,0-.2,0,0,0,0,0,0,0,0,0,0,0,0,0,0,0-.1,0-.1s0,0,0,0c0,0,0,0,0-.1s0,0,0-.1c0,0,0,0,0,0,0,0,0,0,0,0,0,0,0-.2,0-.2,0,0,0-.1,0-.2,0,0,0,0,0,0,0,0,0,0,0,0,0,0,0,0,0-.1,0,0,0,0,0-.1,0,0,0-.1,0-.2,0,0,0-.1,0-.2,0,0,.1,0,.1-.1s0-.1,0-.2c0,0,0-.1,0-.2,0,0,0,0-.1,0,0,0,0,0,0,.1,0,0,0,.1,0,.1,0,0,0,0,0,0,0,0,0,0,0,0,0,0,0,.2,0,.3,0,0,0,.1-.2.1,0,0,0-.1,0-.2,0,0,0-.2,0-.2,0,0,0,0,0,0s0,0,0,0c0,0,0-.1,0-.2,0,0,0-.1.1-.1,0,0,0,0,0,.1,0,0,0,0,.1,0,0,0,0,0,0,0,0,0,0,0,0,0,0,0,0,0,0,0,0,0,0,0-.1,0,0,0,0,0,0,0,0,0,0,0,0,0-.1,0-.2,0-.2-.1,0,0,0,0,.1,0,0,0,0,0,.1,0,0,0-.1,0,0-.1,0,0,.1,0,.1-.1,0,0,0-.1,0-.1,0,0,0,0,0,0,0,0,0,0,0-.1,0,0,0-.1,0-.1,0,0,0-.2,0-.3,0,0,.1,0,.2-.2,0,0,0-.2,0-.2,0,0,0,0,0,0s0,0,0,0h-.1c0,0,0,0,0,0,0,0,0,0,0,.2,0,0,0,.2,0,.2,0,0,0,0,0,0,0,0,0,0,0,0,0,0,0,0,0,0,0,0,0,0,0,0,0,0,0,0,0,0,0,0,0,0,0,0,0,0,0,.2,0,.2,0,0,0,0,0,.1-.1.2-.2.3-.2.3,0,0,0,0,0,0,0,0,0,0,0,0,0,0,0,.1,0,.2s0,.1,0,.2c0,0,0,0,0,0s0,0,0,0c0,0,0,0,0,.1,0,0,0,0,0,.1,0,0,0,0-.1,0s0,0-.1.1c0,0,0,0,0,0,0,0,0,0,0,.1h0s0,0,0,0c0,0,0,0,0,0,0,0,0,0,0,0,0,0,0,.1-.1.1,0,0,0,.1,0,.2,0,0,0,0,0,0,0,0,0,0-.1,0,0,0,0,.1,0,.1,0,0,0,0,0,.1,0,0,0,0,0,.1,0,0,0,0,0,.1-.1,0-.2,0-.2.1s0,.1-.1.2c0,0,0,0,0,0,0,0,0,0,0,0,0,0,0,0,0,0,0,0,0,0,0,0,0,0,0,.1,0,.2,0,0,0,.1-.1.1,0,0,0,.2,0,.2,0,0,0,0,0,.1s0,0,0,.1c0,0,0,.1,0,.2,0,0,0,0-.1,0,0,0,0,0-.1,0,0,0,0,.2,0,.2,0,0,0,0,0,.1,0,0,0,.1,0,.1,0,0,0,0,0,.1,0,0,0,.1,0,.1h0s0,0,0,0c0,0,0,0,0,0h0c0,.1,0,.2,0,.2,0,0,0,0,0,.1,0,0,0,.1,0,.1s0,0,0,.1h0s0,0,0,0c0,0,0,0,0,0,0,0,0,0,0,0,0,0,0,0,0,0,0,0,0,0,0,0,0,0,0,0,0,0s0,0,0,0c0,0,0,0,0,0,0,0-.1,0-.1.1,0,0,0,0,0,0,0,0,0,0,0,.1,0,0,0,0,0,0,0,0,0,0,0,.2s0,0,0,0c0,0,0,0,0,.1,0,0,0,0,0,0,0,0,0,0,0,.1,0,0,0,0,0,0,0,0,0,0,0,0h0s0,0,0,.1c0,0,0,0,0,.1,0,0,0,0,0,0s0,0,0,0c0,0,0,0,0,.1,0,0,0,0,0,.2,0,0,0,0,0,.1,0,0,0,0,0,0,0,0,0,0,0-.1,0,0,0,0,0,0,0,0,0-.1,0-.2s0-.1,0-.2c0,0,0-.1,0-.2s0-.1,0-.2c0,0,0,0,0,0,0,0,0-.1,0-.1,0,0,0,0,0,0,0,0,0,0,0,0,0,0,0,0-.1,0,0,0,0,0,0-.1,0,0,0,0,0-.1,0,0,0,0,0,0,0-.1,0-.2,0-.2,0,0,0,0,0-.1,0,0,0,0,0,0,0,0,0,0,0-.1.2,0,.2,0,.2.1,0,0,0,0-.1.2s0,.2,0,.3h0c0,0,0,.2,0,.2s0,.2,0,.2c0,0,0-.1,0-.2,0,0,0,0,0-.1h0s0,0,0,0,0,0,0,0c0,0,0,0,0,0,0,0,0,0,0,0,0,0,0,0,0,0,0,0,0-.2,0-.2,0,0,0-.2,0-.2h0s0,0,0-.1c0,0,0-.1,0-.1h0s0,0,0,0c0-.2,0-.3,0-.4,0,0,0,0,0-.1s0,0,.1,0c0,.1,0,.2,0,.2,0,0,0,0,0,.1-.1,0-.2,0-.1,0,0,0,0,0,0,.1,0,0,0,0,0,0s0,0,0,.1c0,.1,0,.2,0,.2,0,0,0,0,0,.2s0,0,0,0c0,0,0,0,0,0,0,0,0,0,0,0,0,0,0,0,0,0,0,0,0,0,0,0,0,0,0,0,0,0h-.1c0,0,0,.2,0,.2,0,0,0,0,0,.1,0,0-.1.1-.1.2,0,0,0,.2,0,.2,0,0,0,.2,0,.3,0,0,0,.2,0,.3,0,0,0,0,.1,0,0,0,0,0,0,0s0,0,0,0c0,0,0,0,.1,0,0,0,0,0,0,0s0,0,0,0c0,0,0,0,0,0,0,0,0,0,0,0,0,0,0,0,0,0,0,0,0,0,0,0,0,0,0,0,0,0,0,0,0,0,0,0,0,0,0,0,0-.1,0,0,0,0,0,0,0,0,0-.1,0-.2,0,0,0,0,0-.1,0,0,0,0,0-.1,0,0,0,0,0-.2,0,0,0,0,.1,0,0,0,0,0,0,0,0,0,0,0,0,0,0,0,0,0,0,0,0,0,0,0,0,0s0,0,0,0c0,0,0,0,0,0,0,0,0,0,0-.1h0s0,0,0-.1c0,0,0,0,0-.1,0,0,0,0,0,0s0,0,0,0c0,0,0,0,0-.1,0,0,0,0,0,0,0,0,0,0,0,0s0,0,0,0c0,0,0-.1,0-.2,0,0,0,0,0-.1,0,0,0,0,0,0,0,0,0,0,0,0,0,0,0,0,0,0,0,0,0,0,0,0,0,0,0,0,0,0,0,0,0,0,0,0,0,0,0,0,0,0,0,0,0,0,0,0,0,0-.2-.1-.2-.2.1,0,.2,0,.2,0,0,0,0,0,.1-.2h-.1s0,0,0,0c.2,0,.3,0,.3-.1,0,0,0,0,0,0,0,0,0,0,.1-.1h0s0,0,0,0c0,0,0,0,0,0,0,0,0,0,0,0,0,0,0,0,0,0,0,0,0,0,0,0h0c0,0,0-.1,0-.2,0,0,0,0,0-.1,0,0,0,0,0,0,0,0,0,0,0,0,0,0,0,0,0-.1,0,0,0-.1,0-.1,0,0,0,0,0,0,0,0,0,0,0,0,0,0,0-.2,0-.3s0-.2.1-.2h-.2c0,0-.1,0-.1,0,0,0,0,0,0,0,0,0,0,0,0,0s0,0,0,0c0,0,0,0,.1,0,0,0,0,0,0-.1,0,0,0,0,0,0,0,0,0,0,0,0,0,0,0,0,0,0,0,0,0,0,0-.1,0,0,0,0,0,0,0,0,0,0,0,0,0,0,0,0,0,0,0,0,0,0,0-.1,0,0,0,0,0-.1,0,0,0,0,0,0s0,0,0,0c0,0,0,0,0,0s0,0,0,0c.1,0,.2,0,.2-.1,0,0,0-.1,0-.2,0,0,0,0,0,0,0,0,0,0,0,0,0,0,0,0,0,0,0,0,0,0,0,0,0,0,0,.1,0,.1,0,0,0-.1,0-.2,0,0,0,0,0,0h.2s0,0,0-.1c0,0,0,0,0,0,0,0,0,0-.1,0,0,0,0,0,0-.1,0,0,0,0,.1,0,0,0,0,0,0,0,0,0,0,0,.1,0,0,0,0,0,0-.1,0,0,0,0,0,0s0,0,0,0c0,0,0,0,.1,0,0,0,0,0,.1,0,0,0,0,0,0,0,0,0,0,0,0,0,0,0,0-.1,0-.1,0,0,0,0,0,0,0,0,0,0,.1,0,0,0,0,0,0,0,0,0-.1,0-.1,0,0,0,0,0,0,0s0,0,.1,0c0,0,0,0,0-.1,0,0-.1,0-.1,0,0,0,0,0,0,0,0,0,0,0,0,0s0,0,0,0ZM47,77.2c0,0,0,.1,0,.3,0,0,0,0-.1,0,0,0,0,0,0-.2,0,0,.2,0,.2,0ZM47.1,76.8c0,0,0,.1,0,.3h-.1s0,0,0,0c0,0,0,0,0,0,0,0,0,0,0,0s0,0,0,0c0,0,0,0,0,0,0,0,0,0,.1,0ZM47.1,76.2h0s0,0,0,0c0,0,0,0,0,0,0,0,0,0,.1,0s.1,0,.1,0h-.1c0,.1,0,.1,0,0,0,0,0,0,0,0h0ZM47.1,76.5c0,0,0,0,.1,0,0,0,0,0,0,0s0,0,0,0c0,0,0,0-.1,0ZM47.5,75.9s0,0,0,.1c0,0,0,0,0,0,0,0,0,0-.2,0,0,0-.1-.1,0-.2h.3ZM47.1,79.2c0,0,.1,0,.1,0,0,0,0,0,0,0,0,0,0,0,0,.1,0,0,0,0,0,.1,0,0,0,0,0-.1s0-.2,0-.2ZM47.1,79.7s0,0,0,0c0,0,0,0,0,0,0,0,0,0,0,0s0,0,0,0c0,0,0,0,0,0,0,0,0,0,0-.1,0,0,0,0,0,0,0,0,0,0,0,0s0,0,0,0ZM47.7,75.3c0,0-.1.1-.3,0,0,0,.2,0,.3,0ZM47.6,75c0,0,.1,0,.2,0,0,0,0,0,0,0,0,0,0,0,0,0,0,0,0,0,0,0,0,0,0,0,0,0,0,0,0,0,0,0,0,0,0,0,0,0,0,0,0,0,0,0ZM47.8,74.5s0,0,0,0c0,0,0,0,0,0,0,0,0,0,0,0,0,0,0,0-.1,0,0,.1,0,.2-.2.2v-.2c0,0,.1,0,.1,0,0,0,0,0,0-.1ZM48.1,74.3s0,0,0,0c0,0,0,0,0,0,0,0,0,0,0,0,0,0,0-.1,0-.1,0,0,0,0,0,0,0,0,0,0,0,0ZM48.2,74c0,0,0,.1,0,.1,0,0,0,0,0,0-.1,0-.1,0,0-.2h.1ZM48.5,73.4c0,0,0,.1,0,.1,0,0,0,0,0,.1,0,0,0,0,0,.1s0,0,0,.1c0,0,0,0,0,0,0,0,0,0,0,0,0,0,0,0,0,0,0,0,0,0-.1,0,0,0,0,0,0,0s0,0,0,0c0-.1,0-.2,0-.3,0,0,.1-.1.2-.1ZM48.2,72.2c0,0,0,.1,0,0,0,0,0,0,0,0,0,0,0-.1,0-.2,0,0,0,0,.1,0,0,0,0,0,0,0,0,0,0,0,0,0,0,0,0,.1,0,.2,0,0,0,.1-.1.1ZM48.7,71.6s0,0,0,0c0,0,0,0,0,0,0,0,0,0,0,0,0,0,0,0,0,0ZM48.6,75.1s0,0,0,0h0c0,.2,0,.1,0,.1,0,0,0,0,0,0,0,0,0,0,0,0s0,0,0,0ZM49.6,71.3c-.1,0-.1,0,0,.2-.1,0-.1,0-.1,0,0,0,0,0,0,0,0,0,0,0-.1.1,0,0,0,0,0,.1h0s0,0,0,0h0s0,0,0,.1c0,0,0,0,0,.1,0,0,0,0,0,0s0,0,0,0c0,0,.1,0,.2,0,0,0,0-.1,0-.1,0,0,0-.1.1-.2,0,0,0-.1,0-.2,0,0,.1,0,.1-.1s0-.1,0-.2c0,0,0-.1,0-.2,0,0,0,0,0,0,0,0,0,0,0,0ZM49.1,74.2c0,0,0,.1-.2.1,0,0,0,0,0-.1,0,0,0,0,.2,0ZM49.5,72.8c0,0,0,0,.1,0,0,0,0,0,0,0s0,0,0,0c0,0,0,0-.1,0ZM49.9,70.7s0,0,0,0c0,0,0,0,0,0,0,0,0,0,0,0s0,.1,0,.2c0,0,0,0-.1.1,0,0,0,0,0,.1,0-.1,0-.2.1-.2s0-.2.1-.3ZM50,72.2c0,0,0,.1,0,.1,0,0,0,0,0,.2,0,0,0,0,0,0,0,0,0-.1,0-.1h0s0,0,0,0c0,0,0,0,0-.1,0,0,0,0,.2,0Z"/>
      <path class="st1" d="M57.8,75.6c0,0-.1,0-.2,0,0,0,0,0,0,0,0,0,0,0,0,0,0,0,0,0-.1,0,0,0,0,.1,0,.1,0,0,0,0,0,0,0,0,0,0,0,0,0,0,0,0,0,.1,0,0,0,0,0,0s0,0,.1,0c0,0,0,0,.1,0,0,0,0,0,0-.1,0,0,0,.1.1.2,0,0,0,.1.1.2,0,0,.2,0,.4,0,0,0,0,.2,0,.2.1-.1.2-.1.3,0,0,0,0,.1,0,.2,0,0,0,0-.1.1,0,0,0,.1,0,.2,0,0,0,.1,0,.2,0,0,0,0,0,0,0,0,0,0,0,0,0,0,0,0,0,.2,0,0,0,.1,0,.2,0,0,0,.1,0,.1,0,0,0,0,0,.1,0,0,0,0,0,0,0,0,0,0,0,0,0,0,0,0,0,.2,0,0,0,.2,0,.3,0,.1,0,.2,0,.3,0,0,0,.2,0,.2,0,.1,0,.3,0,.4,0,.1,0,.3-.1.4,0,0,0,0,0,0,0,0,0,0,0,0h0c0,0,0,.2,0,.3,0,.1,0,.2,0,.3,0,.1,0,.2,0,.3s0,.2,0,.3c0,0,0,0,0,0,0,0,0,0,0,0,0,0,0,0,0,0,0,0,0,0,0,0s0,0,0,0c0,0,0,0,0,0,0,0,0,0,0,0s0,0,0,0c0,0,0,.1,0,.2,0,0,0,0,0,.1,0,0,0,0,0,0,0,0,0,0,0,.1h0s0,0,0,0c0,.1,0,.2,0,.3,0,0,0,.2,0,.3-.1,0-.2,0-.3,0-.1,0-.2,0-.3,0,0,0,0,0,0,0,0,0,0,0,0,0,0,0,0,0,0,0,0,0,0,0,0,0,0,0-.1,0-.2-.1,0,0,0,0,0-.2,0,0-.2,0-.4,0,0-.1-.2-.2-.2-.4,0-.2,0-.3,0-.5,0-.2,0-.4,0-.5,0-.2,0-.4,0-.5,0,0,0,0,0,0s0,0,0,0c0,0,0,0,0,0,0,0,0,0,0,0,0,0,0,.1,0,.2,0,0-.2,0-.2.1,0,0,0,0-.1.1,0,0,0,0-.1.1,0,0,0,0-.1,0s0,0-.1,0c0,0,0,0,0,0,0,0,0,0,0,0,0,0-.1,0-.2,0,0,0-.2,0-.3,0,0,0,0,0-.2,0,0,0-.2,0-.2,0,0,0-.1-.1-.2-.2,0,0,0,0,0,0,0,0,0,0,0,0,0,0,0,0-.1,0,0,0-.1,0-.2-.1,0,0-.2,0-.2,0,0,0-.1,0-.1,0,0,0,0,0,0,0,0,0,0,0,0,0,0,0-.1-.2-.2-.4,0-.2,0-.3-.1-.5,0,0,0-.1,0-.2s0-.2,0-.3c0,0,0,0,0,0s0,0,0,0c0,0,0,0,0,0,0,0,0,0,0,0v-.6c0-.1,0-.2,0-.3,0-.1,0-.2,0-.3,0,0,0-.1,0-.2,0,0,0-.1.1-.2,0,0,0-.2,0-.3,0,0,0-.2,0-.3,0,0,.1-.2.2-.3,0-.1.1-.2.2-.3,0,0,0,0,0,0s0,0,0,0c0-.1,0-.2,0-.2,0,0,0-.1.1-.2,0,0,0,0,0,0s0,0,0,0c0,0,0,0,.1-.1,0,0,.1,0,.2-.2,0,0,0,0,0,0s0,0,0-.1c0,0,0,0,0,0,0,0,0,0,0,0h0c0-.2.2-.2.3-.3,0,0,.1-.1.1-.2,0,0,0-.1,0-.1,0,0,0,0,0,0,0,0,0,0,0,0h0c0,0,0,0,0,0,0,0,0,0,0,0h0s0,0,0,0c0,0,0,0,0,0,0,0,0,0,0,0h0s0,0,0,0c0,0,0,0,0,0,0,0,0,0,0,0,0,0,.1,0,.3,0s.3,0,.5,0c.1.1.4.3.7.4.3.2.6.3.9.4,0,0,0,0,0,0,0,0,0,0,0,0h0s0,0,0,0c0,0,0,0,0,0,0,0,0,0,0,0,0,0,0,0,.1,0,0,0,.1,0,.2,0,0,0,0,0,0,0s0,0,0,0c0,0,0,0,0,0,0,0,0,0,0,0,0,.1,0,.2,0,.3,0,0,0,.2-.1.3ZM52.7,77.1s0,0,0,0c0,0,0,0,0,0,0,0,0-.1,0-.2,0,0,0,0,0-.1,0,0,0,0,0,0s0,0,0,0c0,0,0,.1,0,.2,0,0,0,.1,0,.2ZM52.9,76.6c0,0,.1,0,.2,0s0-.2,0-.2c0,0,0,.1,0,.2,0,0,0,0,0,.1ZM53.8,77.5c0,0,0,.1,0,.2,0,0,0,0,0,.2,0,0,0,0,0,0s0,0,0,0,0,0,0,0c0,0,0,0,0,.1,0,0,0,0-.1,0,0,0,0,0,0,0,0,0,0,0,0,0,0,0,0,0,0,.1,0,0,0,0,0,.1s0,0,.1,0c0-.1,0-.2,0-.2,0,0,0-.1,0-.2,0,0,0,0,0-.1,0,0,0-.1,0-.2,0,0,0,0,0-.1,0,0,0,0,0,0,0,0,0,0,0,0,0,0,0,0,0-.1,0,0,0,0,0-.1,0,0,0,0-.1,0,0,0,0,0,0,0,0,0,0,0,0,0ZM53.5,78.9s0,0,0,0c0,0,0,0,0,0,0,0,0,0,0,0s0,0,0,0c0,0,0,0,0-.2,0,0,0,0,0,0,0,0,0,0,0,0,0,0,0,0,0,0,0,0,0,0-.1,0ZM54,76.9c0,0,0,.1,0,.1,0,0,0,0,0,0,0,0,0,0,0,0,0,0,0,0,0,0,0,0,.1,0,.1,0,0,0,0,0,0,.1,0,0,0-.1,0-.2,0,0,0-.2,0-.3,0,0,0-.2,0-.3,0,0,0-.1,0-.2,0,0,0,.1,0,.2,0,0,0,.2,0,.3ZM56.1,75.4s0,0-.1,0c0,0,0,0-.1,0h0c0,.1,0,.2-.1.2,0,0,0,0-.1.1,0,0,0,0,0,0,0,0,0,0,0,0,0,0,0,0,0,0,0,0,0,0-.1,0,0,0,0,0-.1,0,0,0,0,0,0,0,0,0,0,0,0,.1,0,0,0,0,0,0,0,0,0,0,0,0,0,0,0,0,0,0,0,0,0,0,0,0,0,0,0,0,0,0,0,0,0,0,0,0,0,0,0,0,0,0,0,0,0,0,0,0,0,0-.1.1-.1.1,0,0,0,0,0,.2,0,0,0,.2-.2.3,0,.1-.1.2-.2.2,0,0,0,.1-.1.2,0,0,0,.2,0,.2,0,.1,0,.2-.1.3,0,.1,0,.2,0,.4.1,0,.2,0,.2,0,0,0,0-.2.1-.2,0,0,0-.1.2-.2,0,0,.1,0,.2-.1,0,0,0-.1.1-.2,0,0,0-.1.1-.2h.1c0-.2.1-.3.1-.4,0,0,0-.2.1-.2,0,0,.1-.1.2-.1,0,0,.1,0,.1-.1,0,0,0-.2.1-.2,0,0,0-.1.1-.2s0,0,0,0c0,0,0,0,0,0,0,0,0-.2.1-.2,0,0,0-.1.1-.2,0,0,0,0,.1,0,0,0,0,0,0,0,0,0,0,0,0,0,0,0,0,0,0-.1,0,0,.2-.2.3-.3,0-.2,0-.3,0-.4-.1,0-.2,0-.3,0,0,0-.1,0-.2.1ZM54.1,76.4s0,0,0,0c0,0,0,0,0,0,0,0,0,0,0-.1,0,0,0,0,0,0,0,0,0,0,0,0v.2ZM54.4,75.7s0,0,0,0c0,0,0,0,0,0,0,0,0,0,0,0,0,0,0,0,0,0,0,0,0,0-.1.1,0,0,0,0,0,.1,0,0,0-.2.1-.3,0-.1,0-.2.1-.3,0,0,0-.1,0-.2,0,0,0,0-.1,0,0,0,0,.1,0,.2,0,0,0,.2,0,.2ZM55.8,80.7c0,0,.1,0,.2,0,0,0,0,0,0-.1s0,0,0-.1c0,0,0,0,0-.1,0,0,0,0,0-.1,0,0,0,0,0,0,0,0,0,0,0,0,0,0,0,0,0,0,0,0,0,0-.1,0,0,.2,0,.3,0,.4,0,0,0,.2-.1.3ZM55.9,79.7c0,0,0,0,0,0,0,0,0,0,0,0,0,0,.1,0,.2,0,0,0,0,0,.1,0,0,0,0,0,0,0s0,0,0,0c0,0,0,0,0,0s0,0,0-.1c0,0,0,0,0-.1,0,0,0,0,0-.1,0,0,0,0,0,0,0,0,0,0,0,0h-.1c0,0,0,0,0,0,0,0,0,0,0,.2,0,.1,0,.2-.1.3ZM56.4,77.8c0,.1,0,.2,0,.2,0,0,0,0,0,0,0,0,0,0,0,0s0,0-.1,0ZM56.7,77.5s0,0,0,0,0,0,0,0c0,0,0,.2,0,.2,0,0,0,0,.1,0Z"/>
      <path class="st1" d="M70.5,75.6c0,0-.1,0-.2,0,0,0,0,0,0,0,0,0,0,0,0,0,0,0,0,0-.1,0,0,0,0,.1,0,.1,0,0,0,0,0,0,0,0,0,0,0,0,0,0,0,0,0,.1,0,0,0,0,0,0s0,0,.1,0c0,0,0,0,.1,0,0,0,0,0,0-.1,0,0,0,.1.1.2,0,0,0,.1.1.2,0,0,.2,0,.4,0,0,0,0,.2,0,.2.1-.1.2-.1.3,0,0,0,0,.1,0,.2,0,0,0,0-.1.1,0,0,0,.1,0,.2,0,0,0,.1,0,.2,0,0,0,0,0,0,0,0,0,0,0,0,0,0,0,0,0,.2,0,0,0,.1,0,.2,0,0,0,.1,0,.1,0,0,0,0,0,.1,0,0,0,0,0,0,0,0,0,0,0,0,0,0,0,0,0,.2,0,0,0,.2,0,.3,0,.1,0,.2,0,.3,0,0,0,.2,0,.2,0,.1,0,.3,0,.4,0,.1,0,.3-.1.4,0,0,0,0,0,0,0,0,0,0,0,0h0c0,0,0,.2,0,.3,0,.1,0,.2,0,.3,0,.1,0,.2,0,.3s0,.2,0,.3c0,0,0,0,0,0,0,0,0,0,0,0,0,0,0,0,0,0,0,0,0,0,0,0s0,0,0,0c0,0,0,0,0,0,0,0,0,0,0,0s0,0,0,0c0,0,0,.1,0,.2,0,0,0,0,0,.1,0,0,0,0,0,0,0,0,0,0,0,.1h0s0,0,0,0c0,.1,0,.2,0,.3,0,0,0,.2,0,.3-.1,0-.2,0-.3,0-.1,0-.2,0-.3,0,0,0,0,0,0,0,0,0,0,0,0,0,0,0,0,0,0,0,0,0,0,0,0,0,0,0-.1,0-.2-.1,0,0,0,0,0-.2,0,0-.2,0-.4,0,0-.1-.2-.2-.2-.4,0-.2,0-.3,0-.5,0-.2,0-.4,0-.5,0-.2,0-.4,0-.5,0,0,0,0,0,0s0,0,0,0c0,0,0,0,0,0,0,0,0,0,0,0,0,0,0,.1,0,.2,0,0-.2,0-.2.1,0,0,0,0-.1.1,0,0,0,0-.1.1,0,0,0,0-.1,0s0,0-.1,0c0,0,0,0,0,0,0,0,0,0,0,0,0,0-.1,0-.2,0,0,0-.2,0-.3,0,0,0,0,0-.2,0,0,0-.2,0-.2,0,0,0-.1-.1-.2-.2,0,0,0,0,0,0,0,0,0,0,0,0,0,0,0,0-.1,0,0,0-.1,0-.2-.1,0,0-.2,0-.2,0,0,0-.1,0-.1,0,0,0,0,0,0,0,0,0,0,0,0,0,0,0-.1-.2-.2-.4,0-.2,0-.3-.1-.5,0,0,0-.1,0-.2s0-.2,0-.3c0,0,0,0,0,0s0,0,0,0c0,0,0,0,0,0,0,0,0,0,0,0v-.6c0-.1,0-.2,0-.3,0-.1,0-.2,0-.3,0,0,0-.1,0-.2,0,0,0-.1.1-.2,0,0,0-.2,0-.3,0,0,0-.2,0-.3,0,0,.1-.2.2-.3,0-.1.1-.2.2-.3,0,0,0,0,0,0s0,0,0,0c0-.1,0-.2,0-.2,0,0,0-.1.1-.2,0,0,0,0,0,0s0,0,0,0c0,0,0,0,.1-.1,0,0,.1,0,.2-.2,0,0,0,0,0,0s0,0,0-.1c0,0,0,0,0,0,0,0,0,0,0,0h0c0-.2.2-.2.3-.3,0,0,.1-.1.1-.2,0,0,0-.1,0-.1,0,0,0,0,0,0,0,0,0,0,0,0h0c0,0,0,0,0,0,0,0,0,0,0,0h0s0,0,0,0c0,0,0,0,0,0,0,0,0,0,0,0h0s0,0,0,0c0,0,0,0,0,0,0,0,0,0,0,0,0,0,.1,0,.3,0s.3,0,.5,0c.1.1.4.3.7.4.3.2.6.3.9.4,0,0,0,0,0,0,0,0,0,0,0,0h0s0,0,0,0c0,0,0,0,0,0,0,0,0,0,0,0,0,0,0,0,.1,0,0,0,.1,0,.2,0,0,0,0,0,0,0s0,0,0,0c0,0,0,0,0,0,0,0,0,0,0,0,0,.1,0,.2,0,.3,0,0,0,.2-.1.3ZM65.5,77.1s0,0,0,0c0,0,0,0,0,0,0,0,0-.1,0-.2,0,0,0,0,0-.1,0,0,0,0,0,0s0,0,0,0c0,0,0,.1,0,.2,0,0,0,.1,0,.2ZM65.6,76.6c0,0,.1,0,.2,0s0-.2,0-.2c0,0,0,.1,0,.2,0,0,0,0,0,.1ZM66.5,77.4c0,0,0,.1,0,.2,0,0,0,0,0,.2,0,0,0,0,0,0s0,0,0,0,0,0,0,0c0,0,0,0,0,.1,0,0,0,0-.1,0,0,0,0,0,0,0,0,0,0,0,0,0,0,0,0,0,0,.1,0,0,0,0,0,.1s0,0,.1,0c0-.1,0-.2,0-.2,0,0,0-.1,0-.2,0,0,0,0,0-.1,0,0,0-.1,0-.2,0,0,0,0,0-.1,0,0,0,0,0,0,0,0,0,0,0,0,0,0,0,0,0-.1,0,0,0,0,0-.1,0,0,0,0-.1,0,0,0,0,0,0,0,0,0,0,0,0,0ZM66.3,78.9s0,0,0,0c0,0,0,0,0,0,0,0,0,0,0,0s0,0,0,0c0,0,0,0,0-.2,0,0,0,0,0,0,0,0,0,0,0,0,0,0,0,0,0,0,0,0,0,0-.1,0ZM66.8,76.9c0,0,0,.1,0,.1,0,0,0,0,0,0,0,0,0,0,0,0,0,0,0,0,0,0,0,0,.1,0,.1,0,0,0,0,0,0,.1,0,0,0-.1,0-.2,0,0,0-.2,0-.3,0,0,0-.2,0-.3,0,0,0-.1,0-.2,0,0,0,.1,0,.2,0,0,0,.2,0,.3ZM68.9,75.4s0,0-.1,0c0,0,0,0-.1,0h0c0,.1,0,.2-.1.2,0,0,0,0-.1.1,0,0,0,0,0,0,0,0,0,0,0,0,0,0,0,0,0,0,0,0,0,0-.1,0,0,0,0,0-.1,0,0,0,0,0,0,0,0,0,0,0,0,.1,0,0,0,0,0,0,0,0,0,0,0,0,0,0,0,0,0,0,0,0,0,0,0,0,0,0,0,0,0,0,0,0,0,0,0,0,0,0,0,0,0,0,0,0,0,0,0,0,0,0-.1.1-.1.1,0,0,0,0,0,.2,0,0,0,.2-.2.3,0,.1-.1.2-.2.2,0,0,0,.1-.1.2,0,0,0,.2,0,.2,0,.1,0,.2-.1.3,0,.1,0,.2,0,.4.1,0,.2,0,.2,0,0,0,0-.2.1-.2,0,0,0-.1.2-.2,0,0,.1,0,.2-.1,0,0,0-.1.1-.2,0,0,0-.1.1-.2h.1c0-.2.1-.3.1-.4,0,0,0-.2.1-.2,0,0,.1-.1.2-.1,0,0,.1,0,.1-.1,0,0,0-.2.1-.2,0,0,0-.1.1-.2s0,0,0,0c0,0,0,0,0,0,0,0,0-.2.1-.2,0,0,0-.1.1-.2,0,0,0,0,.1,0,0,0,0,0,0,0,0,0,0,0,0,0,0,0,0,0,0-.1,0,0,.2-.2.3-.3,0-.2,0-.3,0-.4-.1,0-.2,0-.3,0,0,0-.1,0-.2.1ZM66.9,76.4s0,0,0,0c0,0,0,0,0,0,0,0,0,0,0-.1,0,0,0,0,0,0,0,0,0,0,0,0v.2ZM67.2,75.7s0,0,0,0c0,0,0,0,0,0,0,0,0,0,0,0,0,0,0,0,0,0,0,0,0,0-.1.1,0,0,0,0,0,.1,0,0,0-.2.1-.3,0-.1,0-.2.1-.3,0,0,0-.1,0-.2,0,0,0,0-.1,0,0,0,0,.1,0,.2,0,0,0,.2,0,.2ZM68.5,80.6c0,0,.1,0,.2,0,0,0,0,0,0-.1s0,0,0-.1c0,0,0,0,0-.1,0,0,0,0,0-.1,0,0,0,0,0,0,0,0,0,0,0,0,0,0,0,0,0,0,0,0,0,0-.1,0,0,.2,0,.3,0,.4,0,0,0,.2-.1.3ZM68.7,79.7c0,0,0,0,0,0,0,0,0,0,0,0,0,0,.1,0,.2,0,0,0,0,0,.1,0,0,0,0,0,0,0s0,0,0,0c0,0,0,0,0,0s0,0,0-.1c0,0,0,0,0-.1,0,0,0,0,0-.1,0,0,0,0,0,0,0,0,0,0,0,0h-.1c0,0,0,0,0,0,0,0,0,0,0,.2,0,.1,0,.2-.1.3ZM69.2,77.8c0,.1,0,.2,0,.2,0,0,0,0,0,0,0,0,0,0,0,0s0,0-.1,0ZM69.5,77.4s0,0,0,0,0,0,0,0c0,0,0,.2,0,.2,0,0,0,0,.1,0Z"/>
      <path class="st1" d="M62.1,77.8c0-.1,0-.2-.2-.2,0,0,0,0,0,0s0,0,.1,0c0,0,0,0,0,0,0,0,0,0,0,0,0,0,0,0,0,0,0,0,0,0,0,0,0,0,0,0,0,0,0,0,0,0,0,0,0,0,0,0,0,0s0,0,0,0,0,0,0,0c0,0,0,0,0-.1,0,0,0,0,0,0,0,0,0,0-.2,0,0,0,0,0,0,0s0,0,.1,0c0,0,.1,0,.1-.1s0,0,.2,0c0,0,0,0,0,0,0,0,0,0,0,0,0,0,0,0,0,0,0,0,0,0,0-.1,0,0,.2.1.2,0,0,0,0-.1,0-.2,0,0,0,0,0,0,0,0,0,0,0,0,0,0,0,0,0,0,0,0,0,0,.1,0,0,0,0,0,0,0,0,0,0,0,0,0,0,0,0,0,0,0,0,0,0,0,0,0,0,0,0,0,0,0,0,0,0,0,0,0,0,0,0,0,.1,0,0,0,0,0,.1,0,0,0,0,0,0,0,0,0,0,0,0,0,0,0,0-.1,0-.1,0,0,0,0,0-.1,0,0,0,0,0,0,0,0,0,0,0,0,0,0,0,0,0,0,0,0,0,0,0-.1,0,0,0,0,0,0,0,0,0,0-.2,0,0,0-.1,0-.2,0,0,0,0,0,0,0,0,0,0,0,0,0,0,0,0,0,0,0,0,0,0,0,0,0,0,0,0,0,.1,0,0,0,0,.2-.1.2,0,0-.1,0-.2,0,0,0,0,0,0,.1,0,0,0,0,0,.1,0,0,0,0,0,0,0,0,0,0,0,0,0,0,0,.2,0,.3,0,.1,0,.2-.2.2,0,.2-.1.4-.3.5,0,0,0,.1,0,.2,0,0,0,0,0,0,0,0,0,0,0,0,0,0,0,0,0,.1,0,0,0,0,0,0,0,0,0,0,0,0,0,0-.1,0-.1,0,0,0,0,0,0,0,0,0,0,0,0-.1,0,0,0,0,0-.1s0,0,0,0c0,0,0,0,0-.1,0,0,0,0,0,0,0,0,0,0,0,0,0,0,0,0,0,0,0,0,0,0,0,0h0s0,0,0,0c0,0,0,0,0,0,0,0,0,0,0,0h0s0,0,0,0c0,0,0,0,0,0h0c0,0,0-.1,0-.2,0,0,0-.1,0-.2,0,0,0,0,0,0,0,0,0,0,0,0,0,0,0,0,0-.2,0,0,0-.2,0-.2,0,0,0,0,0,0,0,0,0,0,0,0s0,0,0-.2c0,0,0-.1,0-.2,0,0,0,0,0,0,0,0,0,0,0,0,0,0,0,0,.1,0,0,0,0,0,.1,0,0,0,0,0,0,0,0,0,0,0,0,0,0,0,0,0,0,0,0,0,0,0,0,0,0,0,0,0,0,0,0,0,0,0,0,0,0,0,0,0,0,0,0,0,0,0,0,0s0,0,0-.1c0,0,0-.1,0-.2,0,0,0,0,0,0s0,0,0,0c0,0,0,0,0,0,0,0,0,0,0,0,0,0,0,0,0,0,0,0,0,0,0,0,0,0,0,0,0-.2,0,0,0,0,.1,0,0,0,0,0,0,0,0,0,0,0-.1,0,0,0,0,0-.1.1,0,0,0,.1,0,.2,0,0,0,0,0,0,0,0,0,0,0,0,0,0,0,.1-.1.3,0,.1-.2.2-.3.2,0,0,0-.1,0-.2,0,0,0-.1,0-.2,0,0,0,0,0,0,0,0,0,0,0,0,0,0,0-.1,0-.2,0,0,0-.2.1-.3,0,0,0,0,0,0,0,0,0,0,0-.1s0,0,0-.1c0,0,0,0,0,0,0,0,0,0,0,0,0,0,0,0,0-.1,0,0,0,0,0-.1,0,0,0,0,0,0,0,0,0,0,0,0,0-.1,0-.2.1-.3,0,0,0-.2.1-.2.1-.1.2-.3.3-.5,0,0,0,0,.2,0h.2s0,.3,0,.3c.1,0,.2,0,.2,0,0,0,0,0,.2,0,0,0,0,.2,0,.2,0,0,.2,0,.3,0,0,0,0,0,0,0,0,0,0,0,0,0s0,0,0,0c0,0,0,0,0,0,0,0,0,0,0,0,0,0,0,0,0,0,0,0,0,0,0,0,0,0,0,0,0,0,0,0,0,.2,0,.2,0,0-.1.1-.1.2,0,0,0,0,0,.1s0,0,0,.2c0,0,0,.1,0,.1s0,0,0,0c0,0,0,0,0,0,0,0,0,0,0,0,0,0,0,0,0,.1,0,0,0,.1,0,.2,0,0,0,0-.1,0,0,0,0,0-.1,0,0,0,0,.1,0,.2s0,0,0,0c0,.1,0,.2,0,.2,0,0,0,.1-.1.2,0,0,0,0,0,0s0,0,0,.1c0,0,0,0,0,0,0,0,0,0,0,0,0,0,0,0,0,0,0,0,0,0,0,0,0,0,0,0,0,0,0,0,0,0,0,0,0,0,0,0,0,0,0,0,0,0,0,0,0,0,0,0,0,0,0,0,0,0,0,0,0,0,0,0,0,.1,0,0,0,0,0,.2s0,0,0,0c0,0,0,0,0,0,0,0,0,0,0,0,0,0,0,0,0,0,0,0,0,0,0,.2s0,.1,0,.2c0,0,0,0,0,0,0,0,0,0,0,0,0,0,0,0,0,0,0,0,0,0,0,0,0,0,0,0,0,0,0,0,0,0,0,0,0,0,0,0,0,0,0,0,0,0,0,0,0,0,0,0,0,.1s0,0,0,0c0,.1,0,.3-.1.4,0,0,0,0,0,0,0,0,0,0,0,0,0,0,0,0,0,0,0,0,0,0,0,0,0,0,0,0,0,0,0,0,0,0,0,0,0,0,0,0,0,.1,0,0,0,0,0,.1,0,0,0,0,0,0s0,0,0,0c0,0,0,.1,0,.2s0,0,0,.1c0,0,0,0-.1.1,0,0,0,0,0,.2s0,0,0,0c0,0,0,0,0,0,0,0,0,0,0,0,0,0,0,0,0,0,0,0,0,0,0,.2,0,0,0,.1,0,.2,0,0,0,0,0,0s0,0,0,0c0,0,0,0,0,.1,0,0,0,0-.1,0,0,.1,0,.2,0,.2,0,0,0,.1-.1.2,0,0,0,0,0,0,0,0,0,0,0,0,0,0,0,.1,0,.2s0,.1,0,.2c0,0,0,0,0,0,0,0,0,0,0,0,0,0,0,0,0,0,0,0,0,0,0,0,0,0,0,0,0,0,0,0,0,0,0,0,0,0,0,0,0,0,0,0,0,0,0,0,0,0,0,0,0,0,0,0,0,0,0,0,0,0,0,0,0,0,0,0,0,0,0,0s0,0,0,0c0,0,0,0,0,0,0,0,0,0,0,0,0,0,0,0,0,0,0,0,0,0,0,0,0,0,0,0,0,0,0,0,0,0,0,0,0,0,0,0,0,0,0,.1-.2.2-.3.3-.1,0-.2.2-.3.3-.1,0-.3,0-.4,0-.1,0-.3,0-.5,0-.2-.2-.4-.3-.6-.4-.2,0-.5-.2-.6-.3-.2-.3-.2-.7-.2-1.1,0-.4,0-.8,0-1.1,0,0,0-.1,0-.1,0,0,0,0,0-.1,0-.2,0-.3,0-.5s0-.3,0-.5c0-.3,0-.5.2-.8,0-.3.1-.5.2-.8,0-.1,0-.2,0-.3,0,0,0-.2,0-.3,0,0,0,0,0,0,0,0,0,0,0,0,0,0,0,0,0-.1,0,0,0,0,0-.1,0,0,0,0,0-.1,0,0,0-.1,0-.3,0,0,0,0,0,0,0,0,0,0,0,0v-.2c0,0,0,0,0,0,0,0,0,0,0-.1,0,0,0,0,0,0,0,0,0,0,0,0,0,0,0-.1,0-.2,0,0,0-.1,0-.2,0,0,0,0,0,0h0c0,0,0-.1,0-.1,0,0,0-.1.1-.3,0-.1,0-.3,0-.4,0,0,.2,0,.2,0,0,0,.2,0,.3,0,0,0,0,.1,0,.2,0,0,0,.2,0,.2,0,0,0,0,0,0s0,0,0,0c0,0,.2,0,.2,0,0,0,.1,0,.2,0,0,0,0,.2,0,.2,0,0,.2,0,.3,0,0,0,0,.2,0,.2,0,0,.2,0,.2,0,0,0,.1.1.2.2,0,.2,0,.3,0,.5,0,.2,0,.3,0,.4,0,.1,0,.2,0,.3s0,.2,0,.3c0,0,0,0,0,0,0,0,0,0,0,0s0,0,0,.1c0,0,0,0,0,0,0,0,0,0,0,.2,0,0,0,.2,0,.3h0s0,0,0,0,0,0,0,.1c0,0,0,0,0,.1,0,0,0,.1,0,.3,0,.1,0,.3,0,.4,0,.1,0,.3-.1.5,0,.2-.1.3-.2.5,0,0,0,0,0,0,0,0,0,0,0,0,0,0,0,0,0,0,0,0,0,0,0,0,0,0,0,0,0,0,0,0,0,0,0,0,0,0,0,0,0,.1,0,0,0,.1-.1.1,0,0,0,0,0,.2,0,.1,0,.2,0,.2-.1,0-.2.2-.2.4,0,.2,0,.3-.1.5.1,0,.2,0,.2-.1s0-.2,0-.2c.3-.1.4-.4.5-.7,0,0,.1,0,.2,0,0-.1,0-.3,0-.3,0,0,.2-.1.2-.2,0,0,0-.1,0-.2,0,0,0,0,.2,0,0-.1,0-.2,0-.2,0,0,0,0,.1-.1h.2c0-.2,0-.2,0-.3,0,0,0-.1,0-.1,0,0,0,0,0,0,0,0,0,0,0,0,0,0,0,0,0,0h0c0-.1,0-.1,0-.1,0,0,0,0,0,0ZM59.2,78.6s0,0,0,0c0,0,0,0,0-.1,0,0,0,0,0,0,0,0,0,0,0,0,0,.1,0,.2,0,.3,0,0,0,0,0,0ZM59.5,77.3c0,0,0-.1,0-.2,0,0,0,0,0,0,0,0,0,.1,0,.2,0,0,0,0,0,0ZM59.7,76.7c0-.1,0-.2,0-.3,0,0,0-.2,0-.3,0,0,0,0,0,0,0,0,0,.1,0,.2,0,0,0,.2,0,.3s0,.1,0,.1ZM64.1,76.1c-.1,0-.2,0-.1,0,0,0,0,0,0,.1,0,0,0,0-.1.1,0,0,0,0,0,.2-.1,0-.2,0-.2.2,0,0,0,.1-.2.2,0,.1,0,.2,0,.3,0,0,0,0-.1.1,0,0,0,.1,0,.2,0,0,0,0-.1,0,0,0,0,0,0,0,0,0,0,0,0,0,0,0,0,0,0,0,0,0,0,0,0,0,0,0,0,0,0,.2,0,0,0,.1,0,.2,0,0,0,0,0,0,0,0,0,0,0,0,0,0,0,0,0,.1,0,0,0,.1,0,.2,0,0,0,0,0,.1,0,0,0,0-.1,0v.3c-.1,0-.2,0-.2.2,0,0-.1.2-.2.2,0,0,0,0,0,0,0,0,0,0,0,0,.1,0,.2,0,.2,0,0,0,0,0,.1-.2h0s0,0,0,0c0,0,0,0,0,0,0,0,0,0,0-.1,0,0,.1,0,.1-.1,0,0,0-.1,0-.2,0,0,0,0,0-.2s0,0,0,0,0,0,0,0c0,0,0,0,0,0s0,0,0,0c0,0,0,0,0,0s0,0,0,0c0,0,0-.1,0-.2,0,0,0-.1,0-.2,0,0,0,0,0,0,0,0,0,0,0,0,0,0,0-.1.1-.1,0,0,0-.1,0-.2,0,0,.1,0,.1,0,0,0,0,0,.1,0,0-.1,0-.2,0-.2,0,0,0-.1,0-.2,0,0,.1,0,.2-.2,0,0,0-.2,0-.3,0,0-.2,0-.2,0s0,.2,0,.2c0,0,0,0,0,0s0,0,0,0c0,0,0,0,0,.1,0,0,0,0,0,.1,0,0,0,0,0,0,0,0,0,0,0,0,0,0,0,0,0,0,0,0,0,0,0,0h0s0,0,0,0c0,0,0,0,0,0,0,0,0,0,0,.1,0,0-.1,0-.1,0s0,0,0,.1c0,0,0,0,0,0,0,0,0,0,0,0,0,0,0,0,0,0s0,0,0,0c0,.1-.1.2-.2.2,0,0,0,.1-.2.2,0,0,0,0,0,0,0,0,0,0-.1,0,0,0,0,0,0,0,0,0,0,0,0,0,0,.1,0,.2,0,.2,0,0,0,.1,0,.2,0,0-.1,0-.1.1s0,.2-.1.1c0,0,0,0,0,0,0,0,0,.1,0,.1,0,0-.1,0,0,0,0,0,0,0,.1,0,0,0,0,0,0,.1,0,0,0,0-.1,0,0,0,0,0,0,0,0,0,0,0,0,0,0,0,0,0,0,0,0,0,0,0,0,0,0,0,0,0,0,0,0,0,.1,0,.1,0,0,0,0,0,0,0,0,0-.1,0-.1.2,0,0,0,.2,0,.2,0,0,0,0,0,0,0,0,0,0,0,0,0,0,0,0,0,.1,0,0,0,.1-.1.1,0,0,0,0,0,0,0,0,0,0,0-.1,0,.1,0,.2,0,.3,0,0,0,0,0,0,0,0,0,0,0,0,0,0-.1.2-.1.2s0,.1,0,.2c-.2,0-.2.2-.2.4,0,0,0,0,0,.2,0,0,0,0,0,0,0,0,0,0,0,0v-.3c.1,0,.2,0,.2,0,0,0,0,0,0-.1,0,0,0,0,0-.1,0,0,0,0,.1,0,0,0-.1.2-.2.3,0,0,0,.1-.2.2s0,0,0,0c0,0,0,0,0,.1,0,0,0,0,0,0,0,0,0,0,0,.1,0,0,0,.1-.1.2,0,0,0,.1,0,.2.1,0,.2,0,.2,0,0,0,0-.2,0-.2.1,0,.2,0,.3,0,0,0,0-.1,0-.2,0,0,0,0,0,0,0,0,0,0,0,0,0,0,0,0,0,0,0,0,0,0,0,0,0,0,0,0,0,0,0,0,.1,0,.1-.2,0,0,0-.1,0-.1,0,0,0,0,0,0,0,0,0,0,0,0,0,0,0,0,0,0,0-.1,0-.2,0-.2,0,0,0,0,.1,0,0,0,0,0,0,0,0,0,0,0,0-.1,0,0,0,0,.1,0,0,0,.1,0,.2,0,0,0,0,0,0-.1s0-.1,0-.1c0,0,0,0,0,0,0,0,0,0,0,0,0,0,0-.1,0-.2,0,0,0,0,0-.1,0,0,0,0,0,0,0,0,0,0,.1,0s0,0,0,0c0,0,0,0,0,0,0,0,0,0,0,0,0,0,0,0,.1,0,0,0,0,0,0-.1,0,0,0,0,0-.1,0,0,0,0,0,0,0,0,0,0,0,0h0c0,0,0,0,0,0,0,0,0,0,0,0,0,0,0,0,0,0,0,0,0,0,0,0,0,0,0,0,0,0,0,0,0,0,0,0h0c0-.1,0-.2,0-.2,0,0,0,0,.2,0,0-.1,0-.2,0-.2,0,0,0-.1,0-.2,0,0,0,0,.1,0,0,0,0-.1,0-.2.1,0,.2,0,.2-.1,0,0,0,0-.1,0,0,0,0,0,0,0,0,0,.1,0,.2,0,0,0,0,0,0,0s0,0,0-.1c0,0,0,0,.1,0s0,0,0,0c0,0,0,0,0-.1,0,0,0,0,.1,0,0,0,0,0,0-.1,0,0,0,0,0-.1,0,0,0,0,0,0,0,0,0,0,0,0,0,0,0,0,.1,0,0,0,0,0,0-.1,0,0,0-.1,0-.1,0,0,0,0,0,0,0,0,0,0,0,0,0,0,0,0,0,0,0,0,0,0,0,0,0,0,0,0,0,0,0,0,0,0,0,0,0,0,0,0,0-.1,0,0,0-.1,0-.1,0,0,0,0,.1,0s0,0,0-.1c0,0-.1,0-.2,0,0,0,0,0-.1,0,0,0,0,.1,0,.2,0,0,0,0,0,0,0,0,0,0,0,0,0,0,0,0,0,0,0,0,0,0,0,.1,0,0,0,0,0,.1h0s0,0,0,0c0,0,0,0,0,0,0,0,0,0,0,0s0,0,0,0c0,0,0,0,0,.2,0,0,0,.1-.1.1,0,0,0,0,0,0,0,0,0,0,0,0h0s0,0,0,0ZM61.6,77.9c0,0,0,.1-.1.1,0,0-.1,0-.1.1,0,0,0,0,0-.2,0,0,.1-.1.2,0ZM61.7,78.8c0,0,0,0,0-.1,0,0,0,0,0-.1,0,0-.1,0-.2,0,0,0,0,.1,0,.1ZM61.7,79.7c0-.1.1-.2.3-.1,0,0,0,0,0,0s0,0,0,0c0,0,0,0,0,0,0,0,0,0,0,0,0,0,0,0-.1,0ZM62,78.2c0,0,.1,0,.1,0,0,0,0-.2,0-.2,0,0,0,0,.1,0,0,0,0,0,0,0,0,0,0,0,0,0,0,0,0,0,0,0s0,0,0,0c-.1,0-.2,0-.3.2,0,.1-.1.2-.2.3ZM62.9,77s0,0,0,0c0,0,0,0,0,0,0,0,0,0,0,.1,0,0,0,0,0,0,0,0,0,0,0,0,0,0,0,0,0,0,0,0,0,0,0,0,0,0,0,0,0,0,0,0,0,0,0,0,0,0,0,0,0,0ZM63.9,75.9h.2s0,0,0-.1c0,0,0,0-.1,0v.2ZM64.2,75.8s0,0,0-.1c0,0,0,0,0-.1,0,0,0,0,0,0,0,0,0,0,0,0,0,0,0-.1,0-.2,0,0,0-.2,0-.2,0,0,.1,0,.1,0,0,0,0-.1,0-.2,0,0,0,0,0,0,0,0,0,0,0,0,0,0,0-.1.1-.2,0,0,0-.1,0-.2,0,0,0,0,0,0,0,0,0,0,0,0,0,0-.1,0-.1,0,0,0,0,0,0,0h0c0,.1,0,.2,0,.2,0,0,0,0-.1,0s0,0,0,0c0,0,0,0,0,.1,0,0,0,0,0,.1,0,0,0,0,0,0,0,0,0,0,0,0,0,0,0,.1,0,.2,0,0,0,.1,0,.2,0,0,0,0-.1,0,0,0,0,0,0,0,0,0,0,0,0,0,0,0,0,0-.1,0,0,.1,0,.2,0,.2,0,0,0,0,.1,0ZM65,74.3c0,0,0,0,0,0,0,0,0,0,0-.1,0,0,0,0-.1,0h0c0,.2,0,.2,0,.2Z"/>
      <path class="st1" d="M73.6,75.7c0,0,0,0,.1,0,0,0,.1,0,.2,0,0,0,0,0,0,0s0,0,0,0c0,0,0,0,.1,0,0,0,0,0,.1,0,0,0,0,0,.1,0,0,0,.1,0,.2,0,0,0,0,0,0,0,0,0,0,0,0,0,0,0,0,0,0,0,0,0,0,0,0,0,0,0,0,0,0,0s0,0,0,0h0s0,0,0,0h0c0,0,0,0,.1,0s.1,0,.2,0c0,0,0,0,0,0,0,0,0,0,0,0,0,0,0,0,0,0s0,0,0,0c0,0,0,0,0,0,0,0,0,0,0,0,0,0,0,0,0,0s0,0,0,0c0,0,0,0,0,0,0,0,0,0,0,0,0,0,0,0,.1,0,0,0,.1,0,.1.1,0,0,0,0,0,0,0,0,0,0,0,0,0,0,0,0,0,0,0,0,0,0,0,.1,0,0,0,0,0,0,0,0,0,0,0,.1,0,0,0,0,0,0s0,0,0,0c0,0,0,0,0,0,0,0,0,0,0,0s0,0,0,0c0,0,0,0,0,0,0,0,0,0,0,0s0,0,0,0c0,0,0,.1,0,.2,0,0,0,.2,0,.2,0,0,0,0,0,0s0,0,0,0v.2s0,0,0,.1c0,0,0,0,0,0,0,0,0,0,0,0,0,0,0,0,0,0s0,0,0,0c0,0,0,0,0,.1,0,0,0,0,0,.1,0,0,0,.1,0,.2,0,0,0,0,0,0,0,0,0,0,0,0,0,0,0,0,0,0,0,0,0,0-.1,0,0,0,0-.2,0-.2s0-.1,0-.2c0,0,0,0,0,0,0,0,0,0,0,0,0,0,0,.1,0,.1,0,0,0,0,0,.1s0,.1,0,.2c0,0,0,0,0,.1,0,0,0,0,0,0,0,0-.1.1-.2.2,0,0-.1,0-.2.2,0,0,0,0,0,0,0,0,0,0,0,0,0,0,0,0,0,0s0,0,0,0c0,0,0,0,0,0,0,0,0,0,0,0,0,0,0,0-.1,0,0,0,0,0,0,.1,0,0,0,0,0,0,0,0,0,0,0,0h0c0,0,0,0,0,0,0,0,0,0,0,0,0,0-.1,0-.2,0,0,0,0,0-.1,0,0,0-.2,0-.2.1,0,0-.2.1-.3.2,0,0,0,0,0,0,0,0,0,0,0,0h0s0,0,0,0c0,0,0,0,0,0,0,0,0,0,0,0,0,0,0,0,0,0,0,0,0,0-.2,0,0,0-.1,0-.2,0,0,0-.2,0-.3,0,0,0-.2,0-.3,0-.1,0-.3,0-.3-.1,0,0,0,0,0,0,0,0,0,0,0,0h0s0,0,0,0c0,0-.1,0-.1,0s0,0-.1,0c0,0,0,0,0,0,0,0,0,0,0,0,0,0,0,0,0,0,0,0,0,0,0,0,0,0-.2-.1-.3-.2s-.2-.2-.3-.2c0,0,0,0,0,0,0,0,0,0,0,0h0s0,0,0,0c0,0,0,0,0,0,0,0,0,0,0,0,0,0-.1-.2,0-.4,0-.2,0-.4.1-.5,0,0,0,0,0,0,0,0,0,0,0,0,0,0,0,0,0-.1,0,0,0,0,0-.1,0,0,0,0,0,0s0,0,0,0c0,0,0,0,.1,0,0,0,.1-.1.2-.2,0,0,.1-.1.1-.2,0,0,0-.1.1-.1,0,0,0,0,0,0,0,0,0,0,0,0,0,0,0,0,0,0,0,0,0,0,0,0,0,0,0,0,0,0,0,0,0,0,0,0,0,0,0,0,0,0s0,0,0,0h0s0,0,0,0c0,0,0,0,0,0,0,0,0,0,.1,0,0,0,0,0,.1,0,0,0,0,0,0,0,0,0,0,0,0,0,0,0,0,0,0,0s0,0,.1,0c0,0,0,0,0,0,0,0,0,0,0,0,0,0,.2,0,.2,0,0,0,.1.1.1.2,0,0,.2,0,.2,0,0,0,.2,0,.2.1,0,0,.2,0,.2.1,0,0,.2,0,.2.1,0,.1,0,.2-.2.2s-.2,0-.3.1c0,0,0,0,0,0,0,0,0,0,0,0,0,0,0,0,0,0s0,0,0,0c0,0,0,0-.1,0,0,0,0,0-.1.1,0,0-.1,0-.2,0s0,0-.1,0c0,0,0,0-.1.1,0,0,0,0,0,0s0,0,0,0c0,0,0,0,0,0,0,0,0,0,0,0h0s0,0,0,.1c0,0,0,0-.1,0,0,0,0,0,0,.1,0,0,0,0,0,0,0,0,0,0,0,0,0,0,0,0,0,0,0,0,0,.1,0,.2,0,0,0,.1,0,.2s0,0,0,0,0,0,0,0v.2c0,0,.2,0,.3,0s.2-.1.3-.2c0,0,0,0,0,0,0,0,0,0,0,0,0,0,0,0,.1,0,0,0,0,0,.1-.1,0,0,.1,0,.2-.2,0,0,.2-.1.2-.2,0,0,.2-.2.3-.3,0-.1.2-.2.3-.3,0,0,0,0,0,0,0,0,0,0,0,0,0,0,0,0,0,0,0,0,0,0,0-.1,0,0,0,0,0-.2,0,0,0-.1.1-.2,0,0,0,0,0-.1,0,0,0-.1,0-.2,0,0,0-.2,0-.3,0-.1,0-.2,0-.3,0-.1,0-.2,0-.3,0,0,0-.2-.1-.2-.1,0-.3,0-.4,0-.2,0-.3,0-.4,0,0,0-.2,0-.3,0-.1,0-.2,0-.2,0-.1,0-.3-.1-.4-.2,0,0,0,0-.1,0,0,0-.1,0-.2,0-.1,0-.2,0-.3-.1s-.1-.1-.2-.3c0,0,0-.1,0-.2s0-.2,0-.3c0,0,0,0,0-.1,0,0,0,0,0-.1,0,0,0,0,0,0h.1c0-.1,0-.2.1-.3,0,0,.1,0,.1-.2s0-.1.1-.2c0-.1.2-.2.3-.3.1,0,.2-.2.4-.2.1,0,.2-.1.4-.2.1,0,.3-.1.4-.2,0,0,.1,0,.2,0s.1,0,.2,0c0,0,0,0,.1,0,0,0,.1,0,.2,0,0,0,0,0,0,0,0,0,0,0,0,0,0,0,0,0,.1,0,0,0,.1,0,.2,0,0,0,.2,0,.2,0,0,0,0,0,0,0,0,0,0,0,0,0s0,0,0,0c0,0,0,0,.1,0,0,0,0,0,.1,0,0,0,0,0,.1,0,0,0,.1,0,.2.1,0,0,.2,0,.2.1,0,0,0,0,0,0,0,0,0,0,0,0h0s0,0,0,0c0,0,0,0,0,0,0,0,0,0,0,0h0c0,0,0,0,0,0,0,0,0,0,0,0,0,0,0,0,.1.1,0,0,0,.1,0,.2,0,0,0,.2,0,.2,0,0,0,.1,0,.2,0,0,0,0,0,0s0,0,0,0c0,0,0,.1,0,.1,0,0,0,0,0,.2,0,0,0,0,0-.1,0,0,0,0-.1,0,0,0,0,0,0,0,0,0,0,0,0,0,0,0,0,0,0,0,0,0,0,0,0,0,0,0,0,0,0-.1,0,0,0,0-.1,0,0,0,0,0,0,0s0,0,0,0c0,0,0,0,0,0,0,0,0,0,0,0,0,0,0,0,0-.1,0,0,0,0,0,0,0,0,0,0,0,0,0,0,0,0,0,0,0,0,0,0,0,0,0,0,0,0,0,0,0,0,0,0,0,0,0,0,0,0-.1,0,0,0,0,0,0,0,0,0,0,0,0,0,0,0,0,0,0,0,0,0,0,0,0,0,0,0,0,0,0,0h-.1c0,0,0,0,0,0h0s0,0,0,0,0,0,0,0c0,0,0,0,0,0s0,0,0,0c0,0,0,0,0,0s0,0,0,0c0,0,0,0,0,0s0,0,0,0c0,0,0,0,0,0s0,0,0,0c0,0-.1.1-.2.2,0,0-.2.2-.2.2,0,0-.2.2-.2.2,0,0-.1.1-.1.2ZM72.9,75.9s0,0,0,0c0,0,0,0,0,0,0,0,0,0,.1,0,0,0,0,0,0,0,0,0-.1,0-.1,0,0,0,0,0,0,.1h0ZM73.4,75c0,0,0,0,0,.1,0,0,0,0,0,0,0,0,0,0,0,0,0,0,0,0,0,.1,0,0-.1,0-.2,0,0,0,0,.1-.1.2,0,0,0,0,0,.1,0,0,0,0,.1,0,0,0,0,0,0,0,0,0,0,0,0,0s0,0,0,0c0,0,.1,0,.1,0,0,0,0,0,0,0h.2c0,0,0-.1,0-.1,0,0,0,0,0,0,0,0,0,0,.1,0,0,0,0,0,0,0,0,0,0,0,0,0,0,0,0,0,0,0,0,0,0,0,0,0,0,0,0,0,0,0,0,0,0,0,0,0,0,0,0,0,0,0,0,0,0,0,0,0,0,0-.1,0-.2,0,0,0,0,0-.2,0ZM73.7,74.8s0,0,0,0,0,0,0,0c0,0,0,0,.1,0,0,0,0,0,.1,0,0,0,0,0,0-.1,0,0,0,0,0-.1,0,0-.1,0-.2,0,0,0,0,0-.1,0ZM74,74.6c0,0-.1,0-.1,0,0,0,0,0,0,0,0,0,0,0,.1,0s0,0,0,0h-.1ZM74.2,74.6s0,0,0,0c0,0,0,0,0,0,0,0,0,0,0,0,0,0,0,0,0,0,0,0,0,0,.1,0,0,0,0,0,0,0ZM75.7,78.5c0,0-.1,0-.1,0,0,0,0,0,0,0,0,0,0,0,.1,0s0,0,0,0h-.1ZM75.8,78.7c0,0-.1,0-.1,0,0,0,0,0,0,0,0,0,0,0,.1,0,0,0,0,0,0,0h-.1ZM75.6,79.1s0,0,0,0c0,0,0,0,0,0,0,0,0,0,0,0,0,0,0,0,0,0h0s0,0,0,0h0c0,0,0,0,0,.1ZM71.4,81.2c0,0,.1-.2.2-.2,0,0,0,0,.2,0,0,0,0,0,0,.2,0,0,0,0,.1-.2,0,0,0,0,0,0,0,0,0,0,0,0,0,0,0,0,0,0,0,0,0,0,0,0,0,0,0,0,0,0s0,0,0,0c0,0,0,0,0,0,0,0,0,0,.1,0,0,0,0,0,0,0,0,0,0,0,0,0h0c0,0,0,0,0,.1,0,0,0,0,0,.1,0,0,0,.1,0,.2,0,0,0,.1,0,.2,0,0,0,0,0,0,0,0,0,0,0,0,0,0,0,0-.1.2,0,0,0,.1,0,.2,0,0,0,0-.1.1,0,0,0,.2,0,.2,0,0,0,.1-.1.1,0,0,0,0,0,0,0,0,0,0,0-.1,0,0,0,0-.1.2,0,0,0,0,0,0,0,0,0,0,0,0,0,0-.2,0-.3,0,0,0,0-.1,0-.1s0,0,0,0c0,0-.1,0-.1,0,0,0-.1,0-.2,0,0,0,0-.1,0-.2,0,0,0-.1,0-.2,0,0,0,0,0,.1,0,0,0,.1,0,.2-.1,0-.2,0-.2-.1,0,0,0-.1-.2-.1,0,0,0,0,0,0s0,0,0-.1c0,0,0,0,0,0,0,0,0,0,0,0,0,0,0,0,0,0,0,0,0,0,0,0,0,0,0,0,0,0,0,0,0,0,0,0,0,0,0,0,0-.1s0,0,0-.2c0,0,0,0,0,0,0,0,0,0,0,0,0,0,0,0,0-.1,0,0,0,0,0,0,0,0,0-.1,0-.2,0,0,0-.1,0-.1,0,0,0,0,0,0,0,0,0,0,0,0h0s0,0,0,0c0,0,0,0,0-.1,0,0,0,0,0-.1,0,0,0,0,0,0,0,0,0,0,0-.1,0,0,.1,0,.2,0,0,0,.1,0,.2,0,0,0,0,.1,0,.2,0,0,0,0,0,.2ZM71.1,81.7c0,0,0-.1,0-.2,0,0,0,0,0,0,0,0,0,0,0,0,0,0,0,0,0,0Z"/>
    </g>
  </g>
</svg>